<?xml version="1.0" standalone="no"?>
<!DOCTYPE svg PUBLIC "-//W3C//DTD SVG 1.1//EN" "http://www.w3.org/Graphics/SVG/1.1/DTD/svg11.dtd">
<svg width="48mm" height="330mm" viewBox="0 -330 48 330" xmlns="http://www.w3.org/2000/svg" version="1.1">
<title>OpenSCAD Model</title>
<path d="
M 48,-320 L 47.4755,-322.091 L 45.9251,-324.09 L 43.4164,-325.91 L 40.0591,-327.472 L 36,-328.708
 L 31.4164,-329.563 L 26.5087,-330 L 21.4913,-330 L 16.5836,-329.563 L 12,-328.708 L 7.94086,-327.472
 L 4.58359,-325.91 L 2.07491,-324.09 L 0.524445,-322.091 L 0,-320 L 0,-0 L 48,-0
 z
M 2.85841,-200.897 L 2.85841,-201.103 L 3.05408,-201.166 L 3.17499,-201 L 3.05408,-200.834 z
M 44.8584,-200.897 L 44.8584,-201.103 L 45.0541,-201.166 L 45.175,-201 L 45.0541,-200.834 z
M 44.8584,-197.897 L 44.8584,-198.103 L 45.0541,-198.166 L 45.175,-198 L 45.0541,-197.834 z
M 2.85841,-197.897 L 2.85841,-198.103 L 3.05408,-198.166 L 3.17499,-198 L 3.05408,-197.834 z
M 44.8584,-194.897 L 44.8584,-195.103 L 45.0541,-195.166 L 45.175,-195 L 45.0541,-194.834 z
M 2.85841,-194.897 L 2.85841,-195.103 L 3.05408,-195.166 L 3.17499,-195 L 3.05408,-194.834 z
M 2.85841,-191.897 L 2.85841,-192.103 L 3.05408,-192.166 L 3.17499,-192 L 3.05408,-191.834 z
M 44.8584,-191.897 L 44.8584,-192.103 L 45.0541,-192.166 L 45.175,-192 L 45.0541,-191.834 z
M 44.8584,-188.897 L 44.8584,-189.103 L 45.0541,-189.166 L 45.175,-189 L 45.0541,-188.834 z
M 2.85841,-188.897 L 2.85841,-189.103 L 3.05408,-189.166 L 3.17499,-189 L 3.05408,-188.834 z
M 44.8584,-185.897 L 44.8584,-186.103 L 45.0541,-186.166 L 45.175,-186 L 45.0541,-185.834 z
M 2.85841,-185.897 L 2.85841,-186.103 L 3.05408,-186.166 L 3.17499,-186 L 3.05408,-185.834 z
M 44.8584,-182.897 L 44.8584,-183.103 L 45.0541,-183.166 L 45.175,-183 L 45.0541,-182.834 z
M 2.85841,-182.897 L 2.85841,-183.103 L 3.05408,-183.166 L 3.17499,-183 L 3.05408,-182.834 z
M 44.8584,-179.897 L 44.8584,-180.103 L 45.0541,-180.166 L 45.175,-180 L 45.0541,-179.834 z
M 2.85841,-179.897 L 2.85841,-180.103 L 3.05408,-180.166 L 3.17499,-180 L 3.05408,-179.834 z
M 2.85841,-176.897 L 2.85841,-177.103 L 3.05408,-177.166 L 3.17499,-177 L 3.05408,-176.834 z
M 44.8584,-176.897 L 44.8584,-177.103 L 45.0541,-177.166 L 45.175,-177 L 45.0541,-176.834 z
M 2.85841,-173.897 L 2.85841,-174.103 L 3.05408,-174.166 L 3.17499,-174 L 3.05408,-173.834 z
M 44.8584,-173.897 L 44.8584,-174.103 L 45.0541,-174.166 L 45.175,-174 L 45.0541,-173.834 z
M 2.85841,-170.897 L 2.85841,-171.103 L 3.05408,-171.166 L 3.17499,-171 L 3.05408,-170.834 z
M 44.8584,-170.897 L 44.8584,-171.103 L 45.0541,-171.166 L 45.175,-171 L 45.0541,-170.834 z
M 2.85841,-167.897 L 2.85841,-168.103 L 3.05408,-168.166 L 3.17499,-168 L 3.05408,-167.834 z
M 44.8584,-167.897 L 44.8584,-168.103 L 45.0541,-168.166 L 45.175,-168 L 45.0541,-167.834 z
M 2.85841,-164.897 L 2.85841,-165.103 L 3.05408,-165.166 L 3.17499,-165 L 3.05408,-164.834 z
M 44.8584,-164.897 L 44.8584,-165.103 L 45.0541,-165.166 L 45.175,-165 L 45.0541,-164.834 z
M 2.85841,-161.897 L 2.85841,-162.103 L 3.05408,-162.166 L 3.17499,-162 L 3.05408,-161.834 z
M 44.8584,-161.897 L 44.8584,-162.103 L 45.0541,-162.166 L 45.175,-162 L 45.0541,-161.834 z
M 44.8584,-158.897 L 44.8584,-159.103 L 45.0541,-159.166 L 45.175,-159 L 45.0541,-158.834 z
M 2.85841,-158.897 L 2.85841,-159.103 L 3.05408,-159.166 L 3.17499,-159 L 3.05408,-158.834 z
M 44.8584,-155.897 L 44.8584,-156.103 L 45.0541,-156.166 L 45.175,-156 L 45.0541,-155.834 z
M 2.85841,-155.897 L 2.85841,-156.103 L 3.05408,-156.166 L 3.17499,-156 L 3.05408,-155.834 z
M 44.8584,-152.897 L 44.8584,-153.103 L 45.0541,-153.166 L 45.175,-153 L 45.0541,-152.834 z
M 2.85841,-152.897 L 2.85841,-153.103 L 3.05408,-153.166 L 3.17499,-153 L 3.05408,-152.834 z
M 44.8584,-149.897 L 44.8584,-150.103 L 45.0541,-150.166 L 45.175,-150 L 45.0541,-149.834 z
M 2.85841,-149.897 L 2.85841,-150.103 L 3.05408,-150.166 L 3.17499,-150 L 3.05408,-149.834 z
M 44.8584,-146.897 L 44.8584,-147.103 L 45.0541,-147.166 L 45.175,-147 L 45.0541,-146.834 z
M 2.85841,-146.897 L 2.85841,-147.103 L 3.05408,-147.166 L 3.17499,-147 L 3.05408,-146.834 z
M 2.85841,-143.897 L 2.85841,-144.103 L 3.05408,-144.166 L 3.17499,-144 L 3.05408,-143.834 z
M 44.8584,-143.897 L 44.8584,-144.103 L 45.0541,-144.166 L 45.175,-144 L 45.0541,-143.834 z
M 44.8584,-140.897 L 44.8584,-141.103 L 45.0541,-141.166 L 45.175,-141 L 45.0541,-140.834 z
M 2.85841,-140.897 L 2.85841,-141.103 L 3.05408,-141.166 L 3.17499,-141 L 3.05408,-140.834 z
M 44.8584,-137.897 L 44.8584,-138.103 L 45.0541,-138.166 L 45.175,-138 L 45.0541,-137.834 z
M 2.85841,-137.897 L 2.85841,-138.103 L 3.05408,-138.166 L 3.17499,-138 L 3.05408,-137.834 z
M 44.8584,-134.897 L 44.8584,-135.103 L 45.0541,-135.166 L 45.175,-135 L 45.0541,-134.834 z
M 2.85841,-134.897 L 2.85841,-135.103 L 3.05408,-135.166 L 3.17499,-135 L 3.05408,-134.834 z
M 44.8584,-131.897 L 44.8584,-132.103 L 45.0541,-132.166 L 45.175,-132 L 45.0541,-131.834 z
M 2.85841,-131.897 L 2.85841,-132.103 L 3.05408,-132.166 L 3.17499,-132 L 3.05408,-131.834 z
M 44.8584,-128.897 L 44.8584,-129.103 L 45.0541,-129.166 L 45.175,-129 L 45.0541,-128.834 z
M 2.85841,-128.897 L 2.85841,-129.103 L 3.05408,-129.166 L 3.17499,-129 L 3.05408,-128.834 z
M 44.8584,-125.897 L 44.8584,-126.103 L 45.0541,-126.166 L 45.175,-126 L 45.0541,-125.834 z
M 2.85841,-125.897 L 2.85841,-126.103 L 3.05408,-126.166 L 3.17499,-126 L 3.05408,-125.834 z
M 44.8584,-122.897 L 44.8584,-123.103 L 45.0541,-123.166 L 45.175,-123 L 45.0541,-122.834 z
M 2.85841,-122.897 L 2.85841,-123.103 L 3.05408,-123.166 L 3.17499,-123 L 3.05408,-122.834 z
M 2.85841,-119.897 L 2.85841,-120.103 L 3.05408,-120.166 L 3.17499,-120 L 3.05408,-119.834 z
M 44.8584,-119.897 L 44.8584,-120.103 L 45.0541,-120.166 L 45.175,-120 L 45.0541,-119.834 z
M 2.85841,-116.897 L 2.85841,-117.103 L 3.05408,-117.166 L 3.17499,-117 L 3.05408,-116.834 z
M 44.8584,-116.897 L 44.8584,-117.103 L 45.0541,-117.166 L 45.175,-117 L 45.0541,-116.834 z
M 2.85841,-113.897 L 2.85841,-114.103 L 3.05408,-114.166 L 3.17499,-114 L 3.05408,-113.834 z
M 44.8584,-113.897 L 44.8584,-114.103 L 45.0541,-114.166 L 45.175,-114 L 45.0541,-113.834 z
M 2.85841,-110.897 L 2.85841,-111.103 L 3.05408,-111.166 L 3.17499,-111 L 3.05408,-110.834 z
M 44.8584,-110.897 L 44.8584,-111.103 L 45.0541,-111.166 L 45.175,-111 L 45.0541,-110.834 z
M 44.8584,-107.897 L 44.8584,-108.103 L 45.0541,-108.166 L 45.175,-108 L 45.0541,-107.834 z
M 2.85841,-107.897 L 2.85841,-108.103 L 3.05408,-108.166 L 3.17499,-108 L 3.05408,-107.834 z
M 2.85841,-104.897 L 2.85841,-105.103 L 3.05408,-105.166 L 3.17499,-105 L 3.05408,-104.834 z
M 44.8584,-104.897 L 44.8584,-105.103 L 45.0541,-105.166 L 45.175,-105 L 45.0541,-104.834 z
M 44.8584,-101.897 L 44.8584,-102.103 L 45.0541,-102.166 L 45.175,-102 L 45.0541,-101.834 z
M 2.85841,-101.897 L 2.85841,-102.103 L 3.05408,-102.166 L 3.17499,-102 L 3.05408,-101.834 z
M 44.8584,-98.8971 L 44.8584,-99.1029 L 45.0541,-99.1664 L 45.175,-99 L 45.0541,-98.8336 z
M 2.85841,-98.8971 L 2.85841,-99.1029 L 3.05408,-99.1664 L 3.17499,-99 L 3.05408,-98.8336 z
M 44.8584,-95.8971 L 44.8584,-96.1029 L 45.0541,-96.1664 L 45.175,-96 L 45.0541,-95.8336 z
M 2.85841,-95.8971 L 2.85841,-96.1029 L 3.05408,-96.1664 L 3.17499,-96 L 3.05408,-95.8336 z
M 44.8584,-92.8971 L 44.8584,-93.1029 L 45.0541,-93.1664 L 45.175,-93 L 45.0541,-92.8336 z
M 2.85841,-92.8971 L 2.85841,-93.1029 L 3.05408,-93.1664 L 3.17499,-93 L 3.05408,-92.8336 z
M 44.8584,-89.8971 L 44.8584,-90.1029 L 45.0541,-90.1664 L 45.175,-90 L 45.0541,-89.8336 z
M 2.85841,-89.8971 L 2.85841,-90.1029 L 3.05408,-90.1664 L 3.17499,-90 L 3.05408,-89.8336 z
M 44.8584,-86.8971 L 44.8584,-87.1029 L 45.0541,-87.1664 L 45.175,-87 L 45.0541,-86.8336 z
M 2.85841,-86.8971 L 2.85841,-87.1029 L 3.05408,-87.1664 L 3.17499,-87 L 3.05408,-86.8336 z
M 2.85841,-83.8971 L 2.85841,-84.1029 L 3.05408,-84.1664 L 3.17499,-84 L 3.05408,-83.8336 z
M 44.8584,-83.8971 L 44.8584,-84.1029 L 45.0541,-84.1664 L 45.175,-84 L 45.0541,-83.8336 z
M 44.8584,-80.8971 L 44.8584,-81.1029 L 45.0541,-81.1664 L 45.175,-81 L 45.0541,-80.8336 z
M 2.85841,-80.8971 L 2.85841,-81.1029 L 3.05408,-81.1664 L 3.17499,-81 L 3.05408,-80.8336 z
M 2.85841,-77.8971 L 2.85841,-78.1029 L 3.05408,-78.1664 L 3.17499,-78 L 3.05408,-77.8336 z
M 44.8584,-77.8971 L 44.8584,-78.1029 L 45.0541,-78.1664 L 45.175,-78 L 45.0541,-77.8336 z
M 2.85841,-74.8971 L 2.85841,-75.1029 L 3.05408,-75.1664 L 3.17499,-75 L 3.05408,-74.8336 z
M 44.8584,-74.8971 L 44.8584,-75.1029 L 45.0541,-75.1664 L 45.175,-75 L 45.0541,-74.8336 z
M 2.85841,-71.8971 L 2.85841,-72.1029 L 3.05408,-72.1664 L 3.17499,-72 L 3.05408,-71.8336 z
M 44.8584,-71.8971 L 44.8584,-72.1029 L 45.0541,-72.1664 L 45.175,-72 L 45.0541,-71.8336 z
M 44.8584,-68.8971 L 44.8584,-69.1029 L 45.0541,-69.1664 L 45.175,-69 L 45.0541,-68.8336 z
M 2.85841,-68.8971 L 2.85841,-69.1029 L 3.05408,-69.1664 L 3.17499,-69 L 3.05408,-68.8336 z
M 2.85841,-65.8971 L 2.85841,-66.1029 L 3.05408,-66.1664 L 3.17499,-66 L 3.05408,-65.8336 z
M 44.8584,-65.8971 L 44.8584,-66.1029 L 45.0541,-66.1664 L 45.175,-66 L 45.0541,-65.8336 z
M 44.8584,-62.8971 L 44.8584,-63.1029 L 45.0541,-63.1664 L 45.175,-63 L 45.0541,-62.8336 z
M 2.85841,-62.8971 L 2.85841,-63.1029 L 3.05408,-63.1664 L 3.17499,-63 L 3.05408,-62.8336 z
M 44.8584,-59.8971 L 44.8584,-60.1029 L 45.0541,-60.1664 L 45.175,-60 L 45.0541,-59.8336 z
M 2.85841,-59.8971 L 2.85841,-60.1029 L 3.05408,-60.1664 L 3.17499,-60 L 3.05408,-59.8336 z
M 44.8584,-56.8971 L 44.8584,-57.1029 L 45.0541,-57.1664 L 45.175,-57 L 45.0541,-56.8336 z
M 2.85841,-56.8971 L 2.85841,-57.1029 L 3.05408,-57.1664 L 3.17499,-57 L 3.05408,-56.8336 z
M 44.8584,-53.8971 L 44.8584,-54.1029 L 45.0541,-54.1664 L 45.175,-54 L 45.0541,-53.8336 z
M 2.85841,-53.8971 L 2.85841,-54.1029 L 3.05408,-54.1664 L 3.17499,-54 L 3.05408,-53.8336 z
M 44.8584,-50.8971 L 44.8584,-51.1029 L 45.0541,-51.1664 L 45.175,-51 L 45.0541,-50.8336 z
M 2.85841,-50.8971 L 2.85841,-51.1029 L 3.05408,-51.1664 L 3.17499,-51 L 3.05408,-50.8336 z
M 44.8584,-47.8971 L 44.8584,-48.1029 L 45.0541,-48.1664 L 45.175,-48 L 45.0541,-47.8336 z
M 2.85841,-47.8971 L 2.85841,-48.1029 L 3.05408,-48.1664 L 3.17499,-48 L 3.05408,-47.8336 z
M 44.8584,-44.8971 L 44.8584,-45.1029 L 45.0541,-45.1664 L 45.175,-45 L 45.0541,-44.8336 z
M 2.85841,-44.8971 L 2.85841,-45.1029 L 3.05408,-45.1664 L 3.17499,-45 L 3.05408,-44.8336 z
M 2.85841,-41.8971 L 2.85841,-42.1029 L 3.05408,-42.1664 L 3.17499,-42 L 3.05408,-41.8336 z
M 44.8584,-41.8971 L 44.8584,-42.1029 L 45.0541,-42.1664 L 45.175,-42 L 45.0541,-41.8336 z
M 2.85841,-38.8971 L 2.85841,-39.1029 L 3.05408,-39.1664 L 3.17499,-39 L 3.05408,-38.8336 z
M 44.8584,-38.8971 L 44.8584,-39.1029 L 45.0541,-39.1664 L 45.175,-39 L 45.0541,-38.8336 z
M 2.85841,-35.8971 L 2.85841,-36.1029 L 3.05408,-36.1664 L 3.17499,-36 L 3.05408,-35.8336 z
M 44.8584,-35.8971 L 44.8584,-36.1029 L 45.0541,-36.1664 L 45.175,-36 L 45.0541,-35.8336 z
M 2.85841,-32.8971 L 2.85841,-33.1029 L 3.05408,-33.1664 L 3.17499,-33 L 3.05408,-32.8336 z
M 44.8584,-32.8971 L 44.8584,-33.1029 L 45.0541,-33.1664 L 45.175,-33 L 45.0541,-32.8336 z
M 2.85841,-29.8971 L 2.85841,-30.1029 L 3.05408,-30.1664 L 3.17499,-30 L 3.05408,-29.8336 z
M 44.8584,-29.8971 L 44.8584,-30.1029 L 45.0541,-30.1664 L 45.175,-30 L 45.0541,-29.8336 z
M 2.85841,-26.8971 L 2.85841,-27.1029 L 3.05408,-27.1664 L 3.17499,-27 L 3.05408,-26.8336 z
M 44.8584,-26.8971 L 44.8584,-27.1029 L 45.0541,-27.1664 L 45.175,-27 L 45.0541,-26.8336 z
M 44.8584,-23.8971 L 44.8584,-24.1029 L 45.0541,-24.1664 L 45.175,-24 L 45.0541,-23.8336 z
M 2.85841,-23.8971 L 2.85841,-24.1029 L 3.05408,-24.1664 L 3.17499,-24 L 3.05408,-23.8336 z
M 2.85841,-20.8971 L 2.85841,-21.1029 L 3.05408,-21.1664 L 3.17499,-21 L 3.05408,-20.8336 z
M 44.8584,-20.8971 L 44.8584,-21.1029 L 45.0541,-21.1664 L 45.175,-21 L 45.0541,-20.8336 z
M 2.85841,-17.8971 L 2.85841,-18.1029 L 3.05408,-18.1664 L 3.17499,-18 L 3.05408,-17.8336 z
M 44.8584,-17.8971 L 44.8584,-18.1029 L 45.0541,-18.1664 L 45.175,-18 L 45.0541,-17.8336 z
M 2.85841,-14.8971 L 2.85841,-15.1029 L 3.05408,-15.1664 L 3.17499,-15 L 3.05408,-14.8336 z
M 44.8584,-14.8971 L 44.8584,-15.1029 L 45.0541,-15.1664 L 45.175,-15 L 45.0541,-14.8336 z
M 44.8584,-11.8971 L 44.8584,-12.1029 L 45.0541,-12.1664 L 45.175,-12 L 45.0541,-11.8336 z
M 2.85841,-11.8971 L 2.85841,-12.1029 L 3.05408,-12.1664 L 3.17499,-12 L 3.05408,-11.8336 z
M 2.85841,-8.89713 L 2.85841,-9.10286 L 3.05408,-9.16643 L 3.17499,-9 L 3.05408,-8.83356 z
M 44.8584,-8.89713 L 44.8584,-9.10286 L 45.0541,-9.16643 L 45.175,-9 L 45.0541,-8.83356 z
M 44.8584,-5.89713 L 44.8584,-6.10286 L 45.0541,-6.16643 L 45.175,-6 L 45.0541,-5.83356 z
M 2.85841,-5.89713 L 2.85841,-6.10286 L 3.05408,-6.16643 L 3.17499,-6 L 3.05408,-5.83356 z
M 44.8584,-2.89713 L 44.8584,-3.10286 L 45.0541,-3.16643 L 45.175,-3 L 45.0541,-2.83356 z
M 2.85841,-2.89713 L 2.85841,-3.10286 L 3.05408,-3.16643 L 3.17499,-3 L 3.05408,-2.83356 z
"/></svg>
