<?xml version="1.0" encoding="UTF-8" standalone="no"?>
<svg
   xmlns:dc="http://purl.org/dc/elements/1.1/"
   xmlns:cc="http://creativecommons.org/ns#"
   xmlns:rdf="http://www.w3.org/1999/02/22-rdf-syntax-ns#"
   xmlns:svg="http://www.w3.org/2000/svg"
   xmlns="http://www.w3.org/2000/svg"
   xmlns:sodipodi="http://sodipodi.sourceforge.net/DTD/sodipodi-0.dtd"
   xmlns:inkscape="http://www.inkscape.org/namespaces/inkscape"
   width="48mm"
   height="48mm"
   viewBox="0 -48 48 48"
   version="1.1"
   id="svg4378"
   inkscape:version="0.91 r13725"
   sodipodi:docname="pouch-loop-B.svg">
  <metadata
     id="metadata4388">
    <rdf:RDF>
      <cc:Work
         rdf:about="">
        <dc:format>image/svg+xml</dc:format>
        <dc:type
           rdf:resource="http://purl.org/dc/dcmitype/StillImage" />
      </cc:Work>
    </rdf:RDF>
  </metadata>
  <defs
     id="defs4386" />
  <sodipodi:namedview
     pagecolor="#ffffff"
     bordercolor="#666666"
     borderopacity="1"
     objecttolerance="10"
     gridtolerance="10"
     guidetolerance="10"
     inkscape:pageopacity="0"
     inkscape:pageshadow="2"
     inkscape:window-width="1855"
     inkscape:window-height="1056"
     id="namedview4384"
     showgrid="false"
     inkscape:zoom="19.166667"
     inkscape:cx="24"
     inkscape:cy="24"
     inkscape:window-x="65"
     inkscape:window-y="24"
     inkscape:window-maximized="1"
     inkscape:current-layer="svg4378" />
  <title
     id="title4380">OpenSCAD Model</title>
  <path
     style="color:#000000;font-style:normal;font-variant:normal;font-weight:normal;font-stretch:normal;font-size:medium;line-height:normal;font-family:sans-serif;text-indent:0;text-align:start;text-decoration:none;text-decoration-line:none;text-decoration-style:solid;text-decoration-color:#000000;letter-spacing:normal;word-spacing:normal;text-transform:none;direction:ltr;block-progression:tb;writing-mode:lr-tb;baseline-shift:baseline;text-anchor:start;white-space:normal;clip-rule:nonzero;display:inline;overflow:visible;visibility:visible;opacity:1;isolation:auto;mix-blend-mode:normal;color-interpolation:sRGB;color-interpolation-filters:linearRGB;solid-color:#000000;solid-opacity:1;fill:#000000;fill-opacity:1;fill-rule:nonzero;stroke:none;stroke-width:0.5;stroke-linecap:butt;stroke-linejoin:miter;stroke-miterlimit:4;stroke-dasharray:none;stroke-dashoffset:0;stroke-opacity:1;color-rendering:auto;image-rendering:auto;shape-rendering:auto;text-rendering:auto;enable-background:accumulate"
     d="m -0.25,-48.25 0,48.5 48.5,0 0,-48.5 -0.25,0 -48.25,0 z m 0.5,0.5 47.5,0 0,47.5 -47.5,0 0,-47.5 z m 1.8847656,1.337891 -0.4863281,0.15625 0,0.511718 0.1738281,0.05469 0.3125,0.101562 L 2.4335938,-46 2.1347656,-46.412109 Z m 44.0000004,0 -0.486328,0.15625 0,0.511718 0.173828,0.05469 0.3125,0.101562 L 46.433594,-46 46.134766,-46.412109 Z m -44.1914066,0.236328 0.033203,0.01172 0.171875,0.238281 0,0.0332 -0.2050781,0.06836 L 1.8164062,-46 1.9433594,-46.175781 Z m 43.9999996,0 0.0332,0.01172 0.171876,0.238281 0,0.0332 -0.205079,0.06836 L 45.816406,-46 l 0.126953,-0.175781 z m -43.8085934,1.763672 -0.4863281,0.15625 0,0.511718 0.1738281,0.05469 0.3125,0.101562 L 2.4335938,-44 2.1347656,-44.412109 Z m 44.0000004,0 -0.486328,0.15625 0,0.511718 0.173828,0.05469 0.3125,0.101562 L 46.433594,-44 46.134766,-44.412109 Z m -44.1914066,0.236328 0.033203,0.01172 0.171875,0.238281 0,0.0332 -0.2050781,0.06836 L 1.8164062,-44 1.9433594,-44.175781 Z m 43.9999996,0 0.0332,0.01172 0.171876,0.238281 0,0.0332 -0.205079,0.06836 L 45.816406,-44 l 0.126953,-0.175781 z m -43.8085934,1.763672 -0.4863281,0.15625 0,0.511718 0.1738281,0.05469 0.3125,0.101562 L 2.4335938,-42 2.1347656,-42.412109 Z m 44.0000004,0 -0.486328,0.15625 0,0.511718 0.173828,0.05469 0.3125,0.101562 L 46.433594,-42 46.134766,-42.412109 Z m -44.1914066,0.236328 0.033203,0.01172 0.171875,0.238281 0,0.0332 -0.2050781,0.06836 L 1.8164062,-42 1.9433594,-42.175781 Z m 43.9999996,0 0.0332,0.01172 0.171876,0.238281 0,0.0332 -0.205079,0.06836 L 45.816406,-42 l 0.126953,-0.175781 z m -43.8085934,1.763672 -0.4863281,0.15625 0,0.511718 0.1738281,0.05469 0.3125,0.101562 L 2.4335938,-40 2.1347656,-40.412109 Z m 44.0000004,0 -0.486328,0.15625 0,0.511718 0.173828,0.05469 0.3125,0.101562 L 46.433594,-40 46.134766,-40.412109 Z m -44.1914066,0.236328 0.033203,0.01172 0.171875,0.238281 0,0.0332 -0.2050781,0.06836 L 1.8164062,-40 1.9433594,-40.175781 Z m 43.9999996,0 0.0332,0.01172 0.171876,0.238281 0,0.0332 -0.205079,0.06836 L 45.816406,-40 l 0.126953,-0.175781 z m -43.8085934,1.763672 -0.4863281,0.15625 0,0.511718 0.1738281,0.05469 0.3125,0.101562 L 2.4335938,-38 2.1347656,-38.412109 Z m 44.0000004,0 -0.486328,0.15625 0,0.511718 0.173828,0.05469 0.3125,0.101562 L 46.433594,-38 46.134766,-38.412109 Z m -44.1914066,0.236328 0.033203,0.01172 0.171875,0.238281 0,0.0332 -0.2050781,0.06836 L 1.8164062,-38 1.9433594,-38.175781 Z m 43.9999996,0 0.0332,0.01172 0.171876,0.238281 0,0.0332 -0.205079,0.06836 L 45.816406,-38 l 0.126953,-0.175781 z m -43.8085934,1.763672 -0.4863281,0.15625 0,0.511718 0.1738281,0.05469 0.3125,0.101562 L 2.4335938,-36 2.1347656,-36.412109 Z m 44.0000004,0 -0.486328,0.15625 0,0.511718 0.173828,0.05469 0.3125,0.101562 L 46.433594,-36 46.134766,-36.412109 Z m -44.1914066,0.236328 0.033203,0.01172 0.171875,0.238281 0,0.0332 -0.2050781,0.06836 L 1.8164062,-36 1.9433594,-36.175781 Z m 43.9999996,0 0.0332,0.01172 0.171876,0.238281 0,0.0332 -0.205079,0.06836 L 45.816406,-36 l 0.126953,-0.175781 z m -43.8085934,1.763672 -0.4863281,0.15625 0,0.511718 0.1738281,0.05469 0.3125,0.101562 L 2.4335938,-34 2.1347656,-34.412109 Z m 44.0000004,0 -0.486328,0.15625 0,0.511718 0.173828,0.05469 0.3125,0.101562 L 46.433594,-34 46.134766,-34.412109 Z m -44.1914066,0.236328 0.033203,0.01172 0.171875,0.238281 0,0.0332 -0.2050781,0.06836 L 1.8164062,-34 1.9433594,-34.175781 Z m 43.9999996,0 0.0332,0.01172 0.171876,0.238281 0,0.0332 -0.205079,0.06836 L 45.816406,-34 l 0.126953,-0.175781 z m -43.8085934,1.763672 -0.4863281,0.15625 0,0.511718 0.1738281,0.05469 0.3125,0.101562 L 2.4335938,-32 2.1347656,-32.412109 Z m 44.0000004,0 -0.486328,0.15625 0,0.511718 0.173828,0.05469 0.3125,0.101562 L 46.433594,-32 46.134766,-32.412109 Z m -44.1914066,0.236328 0.033203,0.01172 0.171875,0.238281 0,0.0332 -0.2050781,0.06836 L 1.8164062,-32 1.9433594,-32.175781 Z m 43.9999996,0 0.0332,0.01172 0.171876,0.238281 0,0.0332 -0.205079,0.06836 L 45.816406,-32 l 0.126953,-0.175781 z m -43.8085934,1.763672 -0.4863281,0.15625 0,0.511718 0.1738281,0.05469 0.3125,0.101562 L 2.4335938,-30 2.1347656,-30.412109 Z m 44.0000004,0 -0.486328,0.15625 0,0.511718 0.173828,0.05469 0.3125,0.101562 L 46.433594,-30 46.134766,-30.412109 Z m -44.1914066,0.236328 0.033203,0.01172 0.171875,0.238281 0,0.0332 -0.2050781,0.06836 L 1.8164062,-30 1.9433594,-30.175781 Z m 43.9999996,0 0.0332,0.01172 0.171876,0.238281 0,0.0332 -0.205079,0.06836 L 45.816406,-30 l 0.126953,-0.175781 z m -43.8085934,1.763672 -0.4863281,0.15625 0,0.511718 0.1738281,0.05469 0.3125,0.101562 L 2.4335938,-28 2.1347656,-28.412109 Z m 44.0000004,0 -0.486328,0.15625 0,0.511718 0.173828,0.05469 0.3125,0.101562 L 46.433594,-28 46.134766,-28.412109 Z m -44.1914066,0.236328 0.033203,0.01172 0.171875,0.238281 0,0.0332 -0.2050781,0.06836 L 1.8164062,-28 1.9433594,-28.175781 Z m 43.9999996,0 0.0332,0.01172 0.171876,0.238281 0,0.0332 -0.205079,0.06836 L 45.816406,-28 l 0.126953,-0.175781 z m -43.8085934,1.763672 -0.4863281,0.15625 0,0.511718 0.1738281,0.05469 0.3125,0.101562 L 2.4335938,-26 2.1347656,-26.412109 Z m 44.0000004,0 -0.486328,0.15625 0,0.511718 0.173828,0.05469 0.3125,0.101562 L 46.433594,-26 46.134766,-26.412109 Z m -44.1914066,0.236328 0.033203,0.01172 0.171875,0.238281 0,0.0332 -0.2050781,0.06836 L 1.8164062,-26 1.9433594,-26.175781 Z m 43.9999996,0 0.0332,0.01172 0.171876,0.238281 0,0.0332 -0.205079,0.06836 L 45.816406,-26 l 0.126953,-0.175781 z m -43.8085934,1.763672 -0.4863281,0.15625 0,0.511718 0.1738281,0.05469 0.3125,0.101562 L 2.4335938,-24 2.1347656,-24.412109 Z m 44.0000004,0 -0.486328,0.15625 0,0.511718 0.173828,0.05469 0.3125,0.101562 L 46.433594,-24 46.134766,-24.412109 Z m -44.1914066,0.236328 0.033203,0.01172 0.171875,0.238281 0,0.0332 -0.2050781,0.06836 L 1.8164062,-24 1.9433594,-24.175781 Z m 43.9999996,0 0.0332,0.01172 0.171876,0.238281 0,0.0332 -0.205079,0.06836 L 45.816406,-24 l 0.126953,-0.175781 z m -43.8085934,1.763672 -0.4863281,0.15625 0,0.511718 0.1738281,0.05469 0.3125,0.101562 L 2.4335938,-22 2.1347656,-22.412109 Z m 44.0000004,0 -0.486328,0.15625 0,0.511718 0.173828,0.05469 0.3125,0.101562 L 46.433594,-22 46.134766,-22.412109 Z m -44.1914066,0.236328 0.033203,0.01172 0.171875,0.238281 0,0.0332 -0.2050781,0.06836 L 1.8164062,-22 1.9433594,-22.175781 Z m 43.9999996,0 0.0332,0.01172 0.171876,0.238281 0,0.0332 -0.205079,0.06836 L 45.816406,-22 l 0.126953,-0.175781 z m -43.8085934,1.763672 -0.4863281,0.15625 0,0.511718 0.1738281,0.05469 0.3125,0.101562 L 2.4335938,-20 2.1347656,-20.412109 Z m 44.0000004,0 -0.486328,0.15625 0,0.511718 0.173828,0.05469 0.3125,0.101562 L 46.433594,-20 46.134766,-20.412109 Z m -44.1914066,0.236328 0.033203,0.01172 0.171875,0.238281 0,0.0332 -0.2050781,0.06836 L 1.8164062,-20 1.9433594,-20.175781 Z m 43.9999996,0 0.0332,0.01172 0.171876,0.238281 0,0.0332 -0.205079,0.06836 L 45.816406,-20 l 0.126953,-0.175781 z m -43.8085934,1.763672 -0.4863281,0.15625 0,0.511718 0.1738281,0.05469 0.3125,0.101562 L 2.4335938,-18 2.1347656,-18.412109 Z m 44.0000004,0 -0.486328,0.15625 0,0.511718 0.173828,0.05469 0.3125,0.101562 L 46.433594,-18 46.134766,-18.412109 Z m -44.1914066,0.236328 0.033203,0.01172 0.171875,0.238281 0,0.0332 -0.2050781,0.06836 L 1.8164062,-18 1.9433594,-18.175781 Z m 43.9999996,0 0.0332,0.01172 0.171876,0.238281 0,0.0332 -0.205079,0.06836 L 45.816406,-18 l 0.126953,-0.175781 z m -43.8085934,1.763672 -0.4863281,0.15625 0,0.511718 0.1738281,0.05469 0.3125,0.101562 L 2.4335938,-16 2.1347656,-16.412109 Z m 44.0000004,0 -0.486328,0.15625 0,0.511718 0.173828,0.05469 0.3125,0.101562 L 46.433594,-16 46.134766,-16.412109 Z m -44.1914066,0.236328 0.033203,0.01172 0.171875,0.238281 0,0.0332 -0.2050781,0.06836 L 1.8164062,-16 1.9433594,-16.175781 Z m 43.9999996,0 0.0332,0.01172 0.171876,0.238281 0,0.0332 -0.205079,0.06836 L 45.816406,-16 l 0.126953,-0.175781 z m -43.8085934,1.763672 -0.4863281,0.15625 0,0.511718 0.1738281,0.05469 0.3125,0.101562 L 2.4335938,-14 2.1347656,-14.412109 Z m 44.0000004,0 -0.486328,0.15625 0,0.511718 0.173828,0.05469 0.3125,0.101562 L 46.433594,-14 46.134766,-14.412109 Z m -44.1914066,0.236328 0.033203,0.01172 0.171875,0.238281 0,0.0332 -0.2050781,0.06836 L 1.8164062,-14 1.9433594,-14.175781 Z m 43.9999996,0 0.0332,0.01172 0.171876,0.238281 0,0.0332 -0.205079,0.06836 L 45.816406,-14 l 0.126953,-0.175781 z m -43.8085934,1.763672 -0.4863281,0.15625 0,0.511718 0.1738281,0.05469 0.3125,0.101562 L 2.4335938,-12 2.1347656,-12.412109 Z m 44.0000004,0 -0.486328,0.15625 0,0.511718 0.173828,0.05469 0.3125,0.101562 L 46.433594,-12 46.134766,-12.412109 Z m -44.1914066,0.236328 0.033203,0.01172 0.171875,0.238281 0,0.0332 -0.2050781,0.06836 L 1.8164062,-12 1.9433594,-12.175781 Z m 43.9999996,0 0.0332,0.01172 0.171876,0.238281 0,0.0332 -0.205079,0.06836 L 45.816406,-12 l 0.126953,-0.175781 z m -43.8085934,1.763672 -0.4863281,0.15625 0,0.5117184 0.1738281,0.054687 0.3125,0.1015625 L 2.4335938,-10 2.1347656,-10.412109 Z m 44.0000004,0 -0.486328,0.15625 0,0.5117184 0.173828,0.054687 0.3125,0.1015625 L 46.433594,-10 46.134766,-10.412109 Z m -44.1914066,0.236328 0.033203,0.01172 0.171875,0.2382808 0,0.033203 -0.2050781,0.068359 L 1.8164062,-10 1.9433594,-10.175781 Z m 43.9999996,0 0.0332,0.01172 0.171876,0.2382808 0,0.033203 -0.205079,0.068359 L 45.816406,-10 l 0.126953,-0.175781 z m -43.8085934,1.7636716 -0.4863281,0.15625 0,0.5117188 0.1738281,0.054687 0.3125,0.1015625 L 2.4335938,-8 2.1347656,-8.4121094 Z m 44.0000004,0 -0.486328,0.15625 0,0.5117188 0.173828,0.054687 0.3125,0.1015625 L 46.433594,-8 46.134766,-8.4121094 Z m -44.1914066,0.2363282 0.033203,0.011719 0.171875,0.2382813 0,0.033203 -0.2050781,0.068359 L 1.8164062,-8 1.9433594,-8.1757812 Z m 43.9999996,0 0.0332,0.011719 0.171876,0.2382813 0,0.033203 -0.205079,0.068359 L 45.816406,-8 45.943359,-8.1757812 Z m -43.8085934,1.7636718 -0.4863281,0.15625 0,0.5117188 0.1738281,0.054687 0.3125,0.1015625 L 2.4335938,-6 2.1347656,-6.4121094 Z m 44.0000004,0 -0.486328,0.15625 0,0.5117188 0.173828,0.054687 0.3125,0.1015625 L 46.433594,-6 46.134766,-6.4121094 Z m -44.1914066,0.2363282 0.033203,0.011719 0.171875,0.2382813 0,0.033203 -0.2050781,0.068359 L 1.8164062,-6 1.9433594,-6.1757812 Z m 43.9999996,0 0.0332,0.011719 0.171876,0.2382813 0,0.033203 -0.205079,0.068359 L 45.816406,-6 45.943359,-6.1757812 Z m -43.8085934,1.7636718 -0.4863281,0.15625 0,0.5117188 0.1738281,0.054687 0.3125,0.1015625 L 2.4335938,-4 2.1347656,-4.4121094 Z m 44.0000004,0 -0.486328,0.15625 0,0.5117188 0.173828,0.054687 0.3125,0.1015625 L 46.433594,-4 46.134766,-4.4121094 Z m -44.1914066,0.2363282 0.033203,0.011719 0.171875,0.2382813 0,0.033203 -0.2050781,0.068359 L 1.8164062,-4 1.9433594,-4.1757812 Z m 43.9999996,0 0.0332,0.011719 0.171876,0.2382813 0,0.033203 -0.205079,0.068359 L 45.816406,-4 45.943359,-4.1757812 Z m -43.8085934,1.7636718 -0.4863281,0.15625 0,0.5117188 0.1738281,0.054687 0.3125,0.1015625 L 2.4335938,-2 2.1347656,-2.4121094 Z m 44.0000004,0 -0.486328,0.15625 0,0.5117188 0.173828,0.054687 0.3125,0.1015625 L 46.433594,-2 46.134766,-2.4121094 Z m -44.1914066,0.2363282 0.033203,0.011719 0.171875,0.2382813 0,0.033203 -0.2050781,0.068359 L 1.8164062,-2 1.9433594,-2.1757812 Z m 43.9999996,0 0.0332,0.011719 0.171876,0.2382813 0,0.033203 -0.205079,0.068359 L 45.816406,-2 45.943359,-2.1757812 Z"
     id="path4382"
     inkscape:connector-curvature="0" />
</svg>
