<?xml version="1.0" standalone="no"?>
<!DOCTYPE svg PUBLIC "-//W3C//DTD SVG 1.1//EN" "http://www.w3.org/Graphics/SVG/1.1/DTD/svg11.dtd">
<svg width="48mm" height="48mm" viewBox="0 -48 48 48" xmlns="http://www.w3.org/2000/svg" version="1.1">
<title>OpenSCAD Model</title>
<path d="
M 48,-48 L 0,-48 L 0,-0 L 48,-0 z
M 2.85841,-44.8971 L 2.85841,-45.1029 L 3.05408,-45.1664 L 3.17499,-45 L 3.05408,-44.8336 z
M 44.8584,-44.8971 L 44.8584,-45.1029 L 45.0541,-45.1664 L 45.175,-45 L 45.0541,-44.8336 z
M 44.8584,-41.8971 L 44.8584,-42.1029 L 45.0541,-42.1664 L 45.175,-42 L 45.0541,-41.8336 z
M 2.85841,-41.8971 L 2.85841,-42.1029 L 3.05408,-42.1664 L 3.17499,-42 L 3.05408,-41.8336 z
M 44.8584,-38.8971 L 44.8584,-39.1029 L 45.0541,-39.1664 L 45.175,-39 L 45.0541,-38.8336 z
M 2.85841,-38.8971 L 2.85841,-39.1029 L 3.05408,-39.1664 L 3.17499,-39 L 3.05408,-38.8336 z
M 2.85841,-35.8971 L 2.85841,-36.1029 L 3.05408,-36.1664 L 3.17499,-36 L 3.05408,-35.8336 z
M 44.8584,-35.8971 L 44.8584,-36.1029 L 45.0541,-36.1664 L 45.175,-36 L 45.0541,-35.8336 z
M 2.85841,-32.8971 L 2.85841,-33.1029 L 3.05408,-33.1664 L 3.17499,-33 L 3.05408,-32.8336 z
M 44.8584,-32.8971 L 44.8584,-33.1029 L 45.0541,-33.1664 L 45.175,-33 L 45.0541,-32.8336 z
M 2.85841,-29.8971 L 2.85841,-30.1029 L 3.05408,-30.1664 L 3.17499,-30 L 3.05408,-29.8336 z
M 44.8584,-29.8971 L 44.8584,-30.1029 L 45.0541,-30.1664 L 45.175,-30 L 45.0541,-29.8336 z
M 2.85841,-26.8971 L 2.85841,-27.1029 L 3.05408,-27.1664 L 3.17499,-27 L 3.05408,-26.8336 z
M 44.8584,-26.8971 L 44.8584,-27.1029 L 45.0541,-27.1664 L 45.175,-27 L 45.0541,-26.8336 z
M 44.8584,-23.8971 L 44.8584,-24.1029 L 45.0541,-24.1664 L 45.175,-24 L 45.0541,-23.8336 z
M 2.85841,-23.8971 L 2.85841,-24.1029 L 3.05408,-24.1664 L 3.17499,-24 L 3.05408,-23.8336 z
M 2.85841,-20.8971 L 2.85841,-21.1029 L 3.05408,-21.1664 L 3.17499,-21 L 3.05408,-20.8336 z
M 44.8584,-20.8971 L 44.8584,-21.1029 L 45.0541,-21.1664 L 45.175,-21 L 45.0541,-20.8336 z
M 2.85841,-17.8971 L 2.85841,-18.1029 L 3.05408,-18.1664 L 3.17499,-18 L 3.05408,-17.8336 z
M 44.8584,-17.8971 L 44.8584,-18.1029 L 45.0541,-18.1664 L 45.175,-18 L 45.0541,-17.8336 z
M 2.85841,-14.8971 L 2.85841,-15.1029 L 3.05408,-15.1664 L 3.17499,-15 L 3.05408,-14.8336 z
M 44.8584,-14.8971 L 44.8584,-15.1029 L 45.0541,-15.1664 L 45.175,-15 L 45.0541,-14.8336 z
M 2.85841,-11.8971 L 2.85841,-12.1029 L 3.05408,-12.1664 L 3.17499,-12 L 3.05408,-11.8336 z
M 44.8584,-11.8971 L 44.8584,-12.1029 L 45.0541,-12.1664 L 45.175,-12 L 45.0541,-11.8336 z
M 44.8584,-8.89713 L 44.8584,-9.10286 L 45.0541,-9.16643 L 45.175,-9 L 45.0541,-8.83356 z
M 2.85841,-8.89713 L 2.85841,-9.10286 L 3.05408,-9.16643 L 3.17499,-9 L 3.05408,-8.83356 z
M 44.8584,-5.89713 L 44.8584,-6.10286 L 45.0541,-6.16643 L 45.175,-6 L 45.0541,-5.83356 z
M 2.85841,-5.89713 L 2.85841,-6.10286 L 3.05408,-6.16643 L 3.17499,-6 L 3.05408,-5.83356 z
M 44.8584,-2.89713 L 44.8584,-3.10286 L 45.0541,-3.16643 L 45.175,-3 L 45.0541,-2.83356 z
M 2.85841,-2.89713 L 2.85841,-3.10286 L 3.05408,-3.16643 L 3.17499,-3 L 3.05408,-2.83356 z
"/></svg>
