<?xml version="1.0" encoding="UTF-8" standalone="no"?>
<svg
   xmlns:dc="http://purl.org/dc/elements/1.1/"
   xmlns:cc="http://creativecommons.org/ns#"
   xmlns:rdf="http://www.w3.org/1999/02/22-rdf-syntax-ns#"
   xmlns:svg="http://www.w3.org/2000/svg"
   xmlns="http://www.w3.org/2000/svg"
   xmlns:sodipodi="http://sodipodi.sourceforge.net/DTD/sodipodi-0.dtd"
   xmlns:inkscape="http://www.inkscape.org/namespaces/inkscape"
   width="22mm"
   height="94mm"
   viewBox="0 -94 22 94"
   version="1.1"
   id="svg4260"
   inkscape:version="0.91 r13725"
   sodipodi:docname="pouch-sides.svg">
  <metadata
     id="metadata4270">
    <rdf:RDF>
      <cc:Work
         rdf:about="">
        <dc:format>image/svg+xml</dc:format>
        <dc:type
           rdf:resource="http://purl.org/dc/dcmitype/StillImage" />
      </cc:Work>
    </rdf:RDF>
  </metadata>
  <defs
     id="defs4268" />
  <sodipodi:namedview
     pagecolor="#ffffff"
     bordercolor="#666666"
     borderopacity="1"
     objecttolerance="10"
     gridtolerance="10"
     guidetolerance="10"
     inkscape:pageopacity="0"
     inkscape:pageshadow="2"
     inkscape:window-width="1855"
     inkscape:window-height="1056"
     id="namedview4266"
     showgrid="false"
     inkscape:zoom="9.787234"
     inkscape:cx="11"
     inkscape:cy="47"
     inkscape:window-x="65"
     inkscape:window-y="24"
     inkscape:window-maximized="1"
     inkscape:current-layer="svg4260" />
  <title
     id="title4262">OpenSCAD Model</title>
  <path
     style="color:#000000;font-style:normal;font-variant:normal;font-weight:normal;font-stretch:normal;font-size:medium;line-height:normal;font-family:sans-serif;text-indent:0;text-align:start;text-decoration:none;text-decoration-line:none;text-decoration-style:solid;text-decoration-color:#000000;letter-spacing:normal;word-spacing:normal;text-transform:none;direction:ltr;block-progression:tb;writing-mode:lr-tb;baseline-shift:baseline;text-anchor:start;white-space:normal;clip-rule:nonzero;display:inline;overflow:visible;visibility:visible;opacity:1;isolation:auto;mix-blend-mode:normal;color-interpolation:sRGB;color-interpolation-filters:linearRGB;solid-color:#000000;solid-opacity:1;fill:#000000;fill-opacity:1;fill-rule:nonzero;stroke:none;stroke-width:0.5;stroke-linecap:butt;stroke-linejoin:miter;stroke-miterlimit:4;stroke-dasharray:none;stroke-dashoffset:0;stroke-opacity:1;color-rendering:auto;image-rendering:auto;shape-rendering:auto;text-rendering:auto;enable-background:accumulate"
     d="m 9.8378906,-94.25 -2.2734375,0.220703 -2.1289062,0.433594 -1.8925781,0.628906 -1.578125,0.800781 -1.19726568,0.947266 -0.75976562,1.068359 -0.2578125,1.121094 0,89.279297 22.5,0 0,-89.279297 -0.0059,-0.02734 -0.251953,-1.09375 -0.759766,-1.068359 -1.197266,-0.947266 -1.578125,-0.800781 -1.892578,-0.628906 -2.128906,-0.433594 -2.273438,-0.220703 -2.3242184,0 z m 0.023437,0.5 2.2753909,0 2.224609,0.216797 2.074219,0.421875 1.828125,0.607422 1.5,0.759765 1.101562,0.873047 0.66211,0.929688 0.222656,0.972656 0,88.71875 -21.5,0 0,-88.720703 0.22265625,-0.970703 0.66210935,-0.929688 1.1015625,-0.873047 1.5,-0.759765 1.828125,-0.607422 2.0742188,-0.421875 L 9.8613281,-93.75 Z m 0.6718749,1.037109 -0.484375,0.158203 0,0.509766 0.171875,0.05664 0.3125,0.101562 0.300781,-0.414062 -0.300781,-0.41211 z m 1.201172,0 -0.486328,0.158203 0,0.509766 0.173828,0.05664 0.3125,0.101562 0.298828,-0.414062 -0.298828,-0.41211 z m -2.5,0.09961 -0.4863281,0.158203 0,0.509766 0.1738281,0.05664 0.3125,0.101563 0.2988281,-0.41211 -0.2988281,-0.414062 z m 3.798828,0 -0.484375,0.158203 0,0.509766 0.171875,0.05664 0.3125,0.101563 0.300781,-0.41211 -0.300781,-0.414062 z m -2.689453,0.138672 0.0332,0.0098 0.171875,0.238282 0,0.03516 -0.205078,0.06641 -0.126953,-0.175781 0.126953,-0.173828 z m 1.199219,0 0.0332,0.0098 0.171875,0.238282 0,0.03516 -0.205078,0.06641 -0.126953,-0.175781 0.126953,-0.173828 z m -3.9082034,0.0625 -0.4863281,0.15625 0,0.511718 0.1738281,0.05469 0.3125,0.101562 L 7.9335938,-92 7.6347656,-92.412109 Z m 7.0000004,0 -0.486328,0.15625 0,0.511718 0.173828,0.05469 0.3125,0.101562 L 14.933594,-92 14.634766,-92.412109 Z m -5.5917972,0.03711 0.033203,0.0098 0.171875,0.238281 0,0.03516 -0.2050781,0.06641 -0.1269532,-0.173828 0.1269532,-0.175781 z m 3.8007812,0 0.0332,0.0098 0.171875,0.238281 0,0.03516 -0.205078,0.06641 -0.126953,-0.173828 0.126953,-0.175781 z m -5.4003906,0.199219 0.033203,0.01172 0.171875,0.238281 0,0.0332 -0.2050781,0.06836 L 7.3164062,-92 7.4433594,-92.175781 Z m 6.9999996,0 0.0332,0.01172 0.171876,0.238281 0,0.0332 -0.205079,0.06836 L 14.316406,-92 l 0.126953,-0.175781 z m -8.6093746,0.162109 -0.484375,0.158203 0,0.509766 0.171875,0.05664 0.3125,0.101562 0.3007812,-0.412109 -0.3007812,-0.414063 z m 10.5996096,0 -0.484375,0.158203 0,0.509766 0.171875,0.05664 0.3125,0.101562 0.300781,-0.412109 -0.300781,-0.414063 z m -10.7910159,0.238281 0.033203,0.01172 0.1738282,0.236328 0,0.03516 -0.2070313,0.06641 -0.1269531,-0.173828 0.1269531,-0.175782 z m 10.5996099,0 0.0332,0.01172 0.173828,0.236328 0,0.03516 -0.207031,0.06641 -0.126954,-0.173828 0.126954,-0.175782 z m -12.2089849,0.363282 -0.484375,0.15625 0,0.511718 0.171875,0.05469 0.3125,0.101562 L 4.3339844,-91 4.0332031,-91.412109 Z m 14.2011719,0 -0.486328,0.15625 0,0.511718 0.173828,0.05469 0.3125,0.101562 L 18.533203,-91 18.234375,-91.412109 Z m -14.390625,0.236328 0.033203,0.01172 0.171875,0.238281 0,0.0332 L 3.84375,-90.824219 3.7167969,-91 3.84375,-91.175781 Z m 14.199219,0 0.0332,0.01172 0.171875,0.238281 0,0.0332 -0.205078,0.06836 L 17.916016,-91 l 0.126953,-0.175781 z m -15.4082034,1.0625 -0.4863281,0.158203 0,0.509766 0.1738281,0.05664 0.3125,0.101563 0.2988282,-0.41211 -0.2988282,-0.414062 z m 17.0000004,0 -0.486328,0.158203 0,0.509766 0.173828,0.05664 0.3125,0.101563 0.298828,-0.41211 -0.298828,-0.414062 z M 2.4433594,-89.875 l 0.033203,0.0098 0.171875,0.238281 0,0.03516 -0.2050781,0.06641 -0.1269532,-0.173828 0.1269532,-0.175781 z m 16.9999996,0 0.0332,0.0098 0.171876,0.238281 0,0.03516 -0.205079,0.06641 -0.126953,-0.173828 0.126953,-0.175781 z m -17.3085934,1.462891 -0.4863281,0.15625 0,0.511718 0.1738281,0.05469 0.3125,0.101562 L 2.4335938,-88 2.1347656,-88.412109 Z m 18.0000004,0 -0.486328,0.15625 0,0.511718 0.173828,0.05469 0.3125,0.101562 L 20.433594,-88 20.134766,-88.412109 Z m -18.1914066,0.236328 0.033203,0.01172 0.171875,0.238281 0,0.0332 -0.2050781,0.06836 L 1.8164062,-88 1.9433594,-88.175781 Z m 17.9999996,0 0.0332,0.01172 0.171876,0.238281 0,0.0332 -0.205079,0.06836 L 19.816406,-88 l 0.126953,-0.175781 z m -17.8085934,1.763672 -0.4863281,0.15625 0,0.511718 0.1738281,0.05469 0.3125,0.101562 L 2.4335938,-86 2.1347656,-86.412109 Z m 18.0000004,0 -0.486328,0.15625 0,0.511718 0.173828,0.05469 0.3125,0.101562 L 20.433594,-86 20.134766,-86.412109 Z m -18.1914066,0.236328 0.033203,0.01172 0.171875,0.238281 0,0.0332 -0.2050781,0.06836 L 1.8164062,-86 1.9433594,-86.175781 Z m 17.9999996,0 0.0332,0.01172 0.171876,0.238281 0,0.0332 -0.205079,0.06836 L 19.816406,-86 l 0.126953,-0.175781 z m -17.8085934,1.763672 -0.4863281,0.15625 0,0.511718 0.1738281,0.05469 0.3125,0.101562 L 2.4335938,-84 2.1347656,-84.412109 Z m 18.0000004,0 -0.486328,0.15625 0,0.511718 0.173828,0.05469 0.3125,0.101562 L 20.433594,-84 20.134766,-84.412109 Z m -18.1914066,0.236328 0.033203,0.01172 0.171875,0.238281 0,0.0332 -0.2050781,0.06836 L 1.8164062,-84 1.9433594,-84.175781 Z m 17.9999996,0 0.0332,0.01172 0.171876,0.238281 0,0.0332 -0.205079,0.06836 L 19.816406,-84 l 0.126953,-0.175781 z m -17.8085934,1.763672 -0.4863281,0.15625 0,0.511718 0.1738281,0.05469 0.3125,0.101562 L 2.4335938,-82 2.1347656,-82.412109 Z m 18.0000004,0 -0.486328,0.15625 0,0.511718 0.173828,0.05469 0.3125,0.101562 L 20.433594,-82 20.134766,-82.412109 Z m -18.1914066,0.236328 0.033203,0.01172 0.171875,0.238281 0,0.0332 -0.2050781,0.06836 L 1.8164062,-82 1.9433594,-82.175781 Z m 17.9999996,0 0.0332,0.01172 0.171876,0.238281 0,0.0332 -0.205079,0.06836 L 19.816406,-82 l 0.126953,-0.175781 z m -17.8085934,1.763672 -0.4863281,0.15625 0,0.511718 0.1738281,0.05469 0.3125,0.101562 L 2.4335938,-80 2.1347656,-80.412109 Z m 18.0000004,0 -0.486328,0.15625 0,0.511718 0.173828,0.05469 0.3125,0.101562 L 20.433594,-80 20.134766,-80.412109 Z m -18.1914066,0.236328 0.033203,0.01172 0.171875,0.238281 0,0.0332 -0.2050781,0.06836 L 1.8164062,-80 1.9433594,-80.175781 Z m 17.9999996,0 0.0332,0.01172 0.171876,0.238281 0,0.0332 -0.205079,0.06836 L 19.816406,-80 l 0.126953,-0.175781 z m -17.8085934,1.763672 -0.4863281,0.15625 0,0.511718 0.1738281,0.05469 0.3125,0.101562 L 2.4335938,-78 2.1347656,-78.412109 Z m 18.0000004,0 -0.486328,0.15625 0,0.511718 0.173828,0.05469 0.3125,0.101562 L 20.433594,-78 20.134766,-78.412109 Z m -18.1914066,0.236328 0.033203,0.01172 0.171875,0.238281 0,0.0332 -0.2050781,0.06836 L 1.8164062,-78 1.9433594,-78.175781 Z m 17.9999996,0 0.0332,0.01172 0.171876,0.238281 0,0.0332 -0.205079,0.06836 L 19.816406,-78 l 0.126953,-0.175781 z m -17.8085934,1.763672 -0.4863281,0.15625 0,0.511718 0.1738281,0.05469 0.3125,0.101562 L 2.4335938,-76 2.1347656,-76.412109 Z m 18.0000004,0 -0.486328,0.15625 0,0.511718 0.173828,0.05469 0.3125,0.101562 L 20.433594,-76 20.134766,-76.412109 Z m -18.1914066,0.236328 0.033203,0.01172 0.171875,0.238281 0,0.0332 -0.2050781,0.06836 L 1.8164062,-76 1.9433594,-76.175781 Z m 17.9999996,0 0.0332,0.01172 0.171876,0.238281 0,0.0332 -0.205079,0.06836 L 19.816406,-76 l 0.126953,-0.175781 z m -17.8085934,1.763672 -0.4863281,0.15625 0,0.511718 0.1738281,0.05469 0.3125,0.101562 L 2.4335938,-74 2.1347656,-74.412109 Z m 18.0000004,0 -0.486328,0.15625 0,0.511718 0.173828,0.05469 0.3125,0.101562 L 20.433594,-74 20.134766,-74.412109 Z m -18.1914066,0.236328 0.033203,0.01172 0.171875,0.238281 0,0.0332 -0.2050781,0.06836 L 1.8164062,-74 1.9433594,-74.175781 Z m 17.9999996,0 0.0332,0.01172 0.171876,0.238281 0,0.0332 -0.205079,0.06836 L 19.816406,-74 l 0.126953,-0.175781 z m -17.8085934,1.763672 -0.4863281,0.15625 0,0.511718 0.1738281,0.05469 0.3125,0.101562 L 2.4335938,-72 2.1347656,-72.412109 Z m 18.0000004,0 -0.486328,0.15625 0,0.511718 0.173828,0.05469 0.3125,0.101562 L 20.433594,-72 20.134766,-72.412109 Z m -18.1914066,0.236328 0.033203,0.01172 0.171875,0.238281 0,0.0332 -0.2050781,0.06836 L 1.8164062,-72 1.9433594,-72.175781 Z m 17.9999996,0 0.0332,0.01172 0.171876,0.238281 0,0.0332 -0.205079,0.06836 L 19.816406,-72 l 0.126953,-0.175781 z m -17.8085934,1.763672 -0.4863281,0.15625 0,0.511718 0.1738281,0.05469 0.3125,0.101562 L 2.4335938,-70 2.1347656,-70.412109 Z m 18.0000004,0 -0.486328,0.15625 0,0.511718 0.173828,0.05469 0.3125,0.101562 L 20.433594,-70 20.134766,-70.412109 Z m -18.1914066,0.236328 0.033203,0.01172 0.171875,0.238281 0,0.0332 -0.2050781,0.06836 L 1.8164062,-70 1.9433594,-70.175781 Z m 17.9999996,0 0.0332,0.01172 0.171876,0.238281 0,0.0332 -0.205079,0.06836 L 19.816406,-70 l 0.126953,-0.175781 z m -17.8085934,1.763672 -0.4863281,0.15625 0,0.511718 0.1738281,0.05469 0.3125,0.101562 L 2.4335938,-68 2.1347656,-68.412109 Z m 18.0000004,0 -0.486328,0.15625 0,0.511718 0.173828,0.05469 0.3125,0.101562 L 20.433594,-68 20.134766,-68.412109 Z m -18.1914066,0.236328 0.033203,0.01172 0.171875,0.238281 0,0.0332 -0.2050781,0.06836 L 1.8164062,-68 1.9433594,-68.175781 Z m 17.9999996,0 0.0332,0.01172 0.171876,0.238281 0,0.0332 -0.205079,0.06836 L 19.816406,-68 l 0.126953,-0.175781 z m -17.8085934,1.763672 -0.4863281,0.15625 0,0.511718 0.1738281,0.05469 0.3125,0.101562 L 2.4335938,-66 2.1347656,-66.412109 Z m 18.0000004,0 -0.486328,0.15625 0,0.511718 0.173828,0.05469 0.3125,0.101562 L 20.433594,-66 20.134766,-66.412109 Z m -18.1914066,0.236328 0.033203,0.01172 0.171875,0.238281 0,0.0332 -0.2050781,0.06836 L 1.8164062,-66 1.9433594,-66.175781 Z m 17.9999996,0 0.0332,0.01172 0.171876,0.238281 0,0.0332 -0.205079,0.06836 L 19.816406,-66 l 0.126953,-0.175781 z m -17.8085934,1.763672 -0.4863281,0.15625 0,0.511718 0.1738281,0.05469 0.3125,0.101562 L 2.4335938,-64 2.1347656,-64.412109 Z m 18.0000004,0 -0.486328,0.15625 0,0.511718 0.173828,0.05469 0.3125,0.101562 L 20.433594,-64 20.134766,-64.412109 Z m -18.1914066,0.236328 0.033203,0.01172 0.171875,0.238281 0,0.0332 -0.2050781,0.06836 L 1.8164062,-64 1.9433594,-64.175781 Z m 17.9999996,0 0.0332,0.01172 0.171876,0.238281 0,0.0332 -0.205079,0.06836 L 19.816406,-64 l 0.126953,-0.175781 z m -17.8085934,1.763672 -0.4863281,0.15625 0,0.511718 0.1738281,0.05469 0.3125,0.101562 L 2.4335938,-62 2.1347656,-62.412109 Z m 18.0000004,0 -0.486328,0.15625 0,0.511718 0.173828,0.05469 0.3125,0.101562 L 20.433594,-62 20.134766,-62.412109 Z m -18.1914066,0.236328 0.033203,0.01172 0.171875,0.238281 0,0.0332 -0.2050781,0.06836 L 1.8164062,-62 1.9433594,-62.175781 Z m 17.9999996,0 0.0332,0.01172 0.171876,0.238281 0,0.0332 -0.205079,0.06836 L 19.816406,-62 l 0.126953,-0.175781 z m -17.8085934,1.763672 -0.4863281,0.15625 0,0.511718 0.1738281,0.05469 0.3125,0.101562 L 2.4335938,-60 2.1347656,-60.412109 Z m 18.0000004,0 -0.486328,0.15625 0,0.511718 0.173828,0.05469 0.3125,0.101562 L 20.433594,-60 20.134766,-60.412109 Z m -18.1914066,0.236328 0.033203,0.01172 0.171875,0.238281 0,0.0332 -0.2050781,0.06836 L 1.8164062,-60 1.9433594,-60.175781 Z m 17.9999996,0 0.0332,0.01172 0.171876,0.238281 0,0.0332 -0.205079,0.06836 L 19.816406,-60 l 0.126953,-0.175781 z m -17.8085934,1.763672 -0.4863281,0.15625 0,0.511718 0.1738281,0.05469 0.3125,0.101562 L 2.4335938,-58 2.1347656,-58.412109 Z m 18.0000004,0 -0.486328,0.15625 0,0.511718 0.173828,0.05469 0.3125,0.101562 L 20.433594,-58 20.134766,-58.412109 Z m -18.1914066,0.236328 0.033203,0.01172 0.171875,0.238281 0,0.0332 -0.2050781,0.06836 L 1.8164062,-58 1.9433594,-58.175781 Z m 17.9999996,0 0.0332,0.01172 0.171876,0.238281 0,0.0332 -0.205079,0.06836 L 19.816406,-58 l 0.126953,-0.175781 z m -17.8085934,1.763672 -0.4863281,0.15625 0,0.511718 0.1738281,0.05469 0.3125,0.101562 L 2.4335938,-56 2.1347656,-56.412109 Z m 18.0000004,0 -0.486328,0.15625 0,0.511718 0.173828,0.05469 0.3125,0.101562 L 20.433594,-56 20.134766,-56.412109 Z m -18.1914066,0.236328 0.033203,0.01172 0.171875,0.238281 0,0.0332 -0.2050781,0.06836 L 1.8164062,-56 1.9433594,-56.175781 Z m 17.9999996,0 0.0332,0.01172 0.171876,0.238281 0,0.0332 -0.205079,0.06836 L 19.816406,-56 l 0.126953,-0.175781 z m -17.8085934,1.763672 -0.4863281,0.15625 0,0.511718 0.1738281,0.05469 0.3125,0.101562 L 2.4335938,-54 2.1347656,-54.412109 Z m 18.0000004,0 -0.486328,0.15625 0,0.511718 0.173828,0.05469 0.3125,0.101562 L 20.433594,-54 20.134766,-54.412109 Z m -18.1914066,0.236328 0.033203,0.01172 0.171875,0.238281 0,0.0332 -0.2050781,0.06836 L 1.8164062,-54 1.9433594,-54.175781 Z m 17.9999996,0 0.0332,0.01172 0.171876,0.238281 0,0.0332 -0.205079,0.06836 L 19.816406,-54 l 0.126953,-0.175781 z m -17.8085934,1.763672 -0.4863281,0.15625 0,0.511718 0.1738281,0.05469 0.3125,0.101562 L 2.4335938,-52 2.1347656,-52.412109 Z m 18.0000004,0 -0.486328,0.15625 0,0.511718 0.173828,0.05469 0.3125,0.101562 L 20.433594,-52 20.134766,-52.412109 Z m -18.1914066,0.236328 0.033203,0.01172 0.171875,0.238281 0,0.0332 -0.2050781,0.06836 L 1.8164062,-52 1.9433594,-52.175781 Z m 17.9999996,0 0.0332,0.01172 0.171876,0.238281 0,0.0332 -0.205079,0.06836 L 19.816406,-52 l 0.126953,-0.175781 z m -17.8085934,1.763672 -0.4863281,0.15625 0,0.511718 0.1738281,0.05469 0.3125,0.101562 L 2.4335938,-50 2.1347656,-50.412109 Z m 18.0000004,0 -0.486328,0.15625 0,0.511718 0.173828,0.05469 0.3125,0.101562 L 20.433594,-50 20.134766,-50.412109 Z m -18.1914066,0.236328 0.033203,0.01172 0.171875,0.238281 0,0.0332 -0.2050781,0.06836 L 1.8164062,-50 1.9433594,-50.175781 Z m 17.9999996,0 0.0332,0.01172 0.171876,0.238281 0,0.0332 -0.205079,0.06836 L 19.816406,-50 l 0.126953,-0.175781 z m -17.8085934,1.763672 -0.4863281,0.15625 0,0.511718 0.1738281,0.05469 0.3125,0.101562 L 2.4335938,-48 2.1347656,-48.412109 Z m 18.0000004,0 -0.486328,0.15625 0,0.511718 0.173828,0.05469 0.3125,0.101562 L 20.433594,-48 20.134766,-48.412109 Z m -18.1914066,0.236328 0.033203,0.01172 0.171875,0.238281 0,0.0332 -0.2050781,0.06836 L 1.8164062,-48 1.9433594,-48.175781 Z m 17.9999996,0 0.0332,0.01172 0.171876,0.238281 0,0.0332 -0.205079,0.06836 L 19.816406,-48 l 0.126953,-0.175781 z m -17.8085934,1.763672 -0.4863281,0.15625 0,0.511718 0.1738281,0.05469 0.3125,0.101562 L 2.4335938,-46 2.1347656,-46.412109 Z m 18.0000004,0 -0.486328,0.15625 0,0.511718 0.173828,0.05469 0.3125,0.101562 L 20.433594,-46 20.134766,-46.412109 Z m -18.1914066,0.236328 0.033203,0.01172 0.171875,0.238281 0,0.0332 -0.2050781,0.06836 L 1.8164062,-46 1.9433594,-46.175781 Z m 17.9999996,0 0.0332,0.01172 0.171876,0.238281 0,0.0332 -0.205079,0.06836 L 19.816406,-46 l 0.126953,-0.175781 z m -17.8085934,1.763672 -0.4863281,0.15625 0,0.511718 0.1738281,0.05469 0.3125,0.101562 L 2.4335938,-44 2.1347656,-44.412109 Z m 18.0000004,0 -0.486328,0.15625 0,0.511718 0.173828,0.05469 0.3125,0.101562 L 20.433594,-44 20.134766,-44.412109 Z m -18.1914066,0.236328 0.033203,0.01172 0.171875,0.238281 0,0.0332 -0.2050781,0.06836 L 1.8164062,-44 1.9433594,-44.175781 Z m 17.9999996,0 0.0332,0.01172 0.171876,0.238281 0,0.0332 -0.205079,0.06836 L 19.816406,-44 l 0.126953,-0.175781 z m -17.8085934,1.763672 -0.4863281,0.15625 0,0.511718 0.1738281,0.05469 0.3125,0.101562 L 2.4335938,-42 2.1347656,-42.412109 Z m 18.0000004,0 -0.486328,0.15625 0,0.511718 0.173828,0.05469 0.3125,0.101562 L 20.433594,-42 20.134766,-42.412109 Z m -18.1914066,0.236328 0.033203,0.01172 0.171875,0.238281 0,0.0332 -0.2050781,0.06836 L 1.8164062,-42 1.9433594,-42.175781 Z m 17.9999996,0 0.0332,0.01172 0.171876,0.238281 0,0.0332 -0.205079,0.06836 L 19.816406,-42 l 0.126953,-0.175781 z m -17.8085934,1.763672 -0.4863281,0.15625 0,0.511718 0.1738281,0.05469 0.3125,0.101562 L 2.4335938,-40 2.1347656,-40.412109 Z m 18.0000004,0 -0.486328,0.15625 0,0.511718 0.173828,0.05469 0.3125,0.101562 L 20.433594,-40 20.134766,-40.412109 Z m -18.1914066,0.236328 0.033203,0.01172 0.171875,0.238281 0,0.0332 -0.2050781,0.06836 L 1.8164062,-40 1.9433594,-40.175781 Z m 17.9999996,0 0.0332,0.01172 0.171876,0.238281 0,0.0332 -0.205079,0.06836 L 19.816406,-40 l 0.126953,-0.175781 z m -17.8085934,1.763672 -0.4863281,0.15625 0,0.511718 0.1738281,0.05469 0.3125,0.101562 L 2.4335938,-38 2.1347656,-38.412109 Z m 18.0000004,0 -0.486328,0.15625 0,0.511718 0.173828,0.05469 0.3125,0.101562 L 20.433594,-38 20.134766,-38.412109 Z m -18.1914066,0.236328 0.033203,0.01172 0.171875,0.238281 0,0.0332 -0.2050781,0.06836 L 1.8164062,-38 1.9433594,-38.175781 Z m 17.9999996,0 0.0332,0.01172 0.171876,0.238281 0,0.0332 -0.205079,0.06836 L 19.816406,-38 l 0.126953,-0.175781 z m -17.8085934,1.763672 -0.4863281,0.15625 0,0.511718 0.1738281,0.05469 0.3125,0.101562 L 2.4335938,-36 2.1347656,-36.412109 Z m 18.0000004,0 -0.486328,0.15625 0,0.511718 0.173828,0.05469 0.3125,0.101562 L 20.433594,-36 20.134766,-36.412109 Z m -18.1914066,0.236328 0.033203,0.01172 0.171875,0.238281 0,0.0332 -0.2050781,0.06836 L 1.8164062,-36 1.9433594,-36.175781 Z m 17.9999996,0 0.0332,0.01172 0.171876,0.238281 0,0.0332 -0.205079,0.06836 L 19.816406,-36 l 0.126953,-0.175781 z m -17.8085934,1.763672 -0.4863281,0.15625 0,0.511718 0.1738281,0.05469 0.3125,0.101562 L 2.4335938,-34 2.1347656,-34.412109 Z m 18.0000004,0 -0.486328,0.15625 0,0.511718 0.173828,0.05469 0.3125,0.101562 L 20.433594,-34 20.134766,-34.412109 Z m -18.1914066,0.236328 0.033203,0.01172 0.171875,0.238281 0,0.0332 -0.2050781,0.06836 L 1.8164062,-34 1.9433594,-34.175781 Z m 17.9999996,0 0.0332,0.01172 0.171876,0.238281 0,0.0332 -0.205079,0.06836 L 19.816406,-34 l 0.126953,-0.175781 z m -17.8085934,1.763672 -0.4863281,0.15625 0,0.511718 0.1738281,0.05469 0.3125,0.101562 L 2.4335938,-32 2.1347656,-32.412109 Z m 18.0000004,0 -0.486328,0.15625 0,0.511718 0.173828,0.05469 0.3125,0.101562 L 20.433594,-32 20.134766,-32.412109 Z m -18.1914066,0.236328 0.033203,0.01172 0.171875,0.238281 0,0.0332 -0.2050781,0.06836 L 1.8164062,-32 1.9433594,-32.175781 Z m 17.9999996,0 0.0332,0.01172 0.171876,0.238281 0,0.0332 -0.205079,0.06836 L 19.816406,-32 l 0.126953,-0.175781 z m -17.8085934,1.763672 -0.4863281,0.15625 0,0.511718 0.1738281,0.05469 0.3125,0.101562 L 2.4335938,-30 2.1347656,-30.412109 Z m 18.0000004,0 -0.486328,0.15625 0,0.511718 0.173828,0.05469 0.3125,0.101562 L 20.433594,-30 20.134766,-30.412109 Z m -18.1914066,0.236328 0.033203,0.01172 0.171875,0.238281 0,0.0332 -0.2050781,0.06836 L 1.8164062,-30 1.9433594,-30.175781 Z m 17.9999996,0 0.0332,0.01172 0.171876,0.238281 0,0.0332 -0.205079,0.06836 L 19.816406,-30 l 0.126953,-0.175781 z m -17.8085934,1.763672 -0.4863281,0.15625 0,0.511718 0.1738281,0.05469 0.3125,0.101562 L 2.4335938,-28 2.1347656,-28.412109 Z m 18.0000004,0 -0.486328,0.15625 0,0.511718 0.173828,0.05469 0.3125,0.101562 L 20.433594,-28 20.134766,-28.412109 Z m -18.1914066,0.236328 0.033203,0.01172 0.171875,0.238281 0,0.0332 -0.2050781,0.06836 L 1.8164062,-28 1.9433594,-28.175781 Z m 17.9999996,0 0.0332,0.01172 0.171876,0.238281 0,0.0332 -0.205079,0.06836 L 19.816406,-28 l 0.126953,-0.175781 z m -17.8085934,1.763672 -0.4863281,0.15625 0,0.511718 0.1738281,0.05469 0.3125,0.101562 L 2.4335938,-26 2.1347656,-26.412109 Z m 18.0000004,0 -0.486328,0.15625 0,0.511718 0.173828,0.05469 0.3125,0.101562 L 20.433594,-26 20.134766,-26.412109 Z m -18.1914066,0.236328 0.033203,0.01172 0.171875,0.238281 0,0.0332 -0.2050781,0.06836 L 1.8164062,-26 1.9433594,-26.175781 Z m 17.9999996,0 0.0332,0.01172 0.171876,0.238281 0,0.0332 -0.205079,0.06836 L 19.816406,-26 l 0.126953,-0.175781 z m -17.8085934,1.763672 -0.4863281,0.15625 0,0.511718 0.1738281,0.05469 0.3125,0.101562 L 2.4335938,-24 2.1347656,-24.412109 Z m 18.0000004,0 -0.486328,0.15625 0,0.511718 0.173828,0.05469 0.3125,0.101562 L 20.433594,-24 20.134766,-24.412109 Z m -18.1914066,0.236328 0.033203,0.01172 0.171875,0.238281 0,0.0332 -0.2050781,0.06836 L 1.8164062,-24 1.9433594,-24.175781 Z m 17.9999996,0 0.0332,0.01172 0.171876,0.238281 0,0.0332 -0.205079,0.06836 L 19.816406,-24 l 0.126953,-0.175781 z m -17.8085934,1.763672 -0.4863281,0.15625 0,0.511718 0.1738281,0.05469 0.3125,0.101562 L 2.4335938,-22 2.1347656,-22.412109 Z m 18.0000004,0 -0.486328,0.15625 0,0.511718 0.173828,0.05469 0.3125,0.101562 L 20.433594,-22 20.134766,-22.412109 Z m -18.1914066,0.236328 0.033203,0.01172 0.171875,0.238281 0,0.0332 -0.2050781,0.06836 L 1.8164062,-22 1.9433594,-22.175781 Z m 17.9999996,0 0.0332,0.01172 0.171876,0.238281 0,0.0332 -0.205079,0.06836 L 19.816406,-22 l 0.126953,-0.175781 z m -17.8085934,1.763672 -0.4863281,0.15625 0,0.511718 0.1738281,0.05469 0.3125,0.101562 L 2.4335938,-20 2.1347656,-20.412109 Z m 18.0000004,0 -0.486328,0.15625 0,0.511718 0.173828,0.05469 0.3125,0.101562 L 20.433594,-20 20.134766,-20.412109 Z m -18.1914066,0.236328 0.033203,0.01172 0.171875,0.238281 0,0.0332 -0.2050781,0.06836 L 1.8164062,-20 1.9433594,-20.175781 Z m 17.9999996,0 0.0332,0.01172 0.171876,0.238281 0,0.0332 -0.205079,0.06836 L 19.816406,-20 l 0.126953,-0.175781 z m -17.8085934,1.763672 -0.4863281,0.15625 0,0.511718 0.1738281,0.05469 0.3125,0.101562 L 2.4335938,-18 2.1347656,-18.412109 Z m 18.0000004,0 -0.486328,0.15625 0,0.511718 0.173828,0.05469 0.3125,0.101562 L 20.433594,-18 20.134766,-18.412109 Z m -18.1914066,0.236328 0.033203,0.01172 0.171875,0.238281 0,0.0332 -0.2050781,0.06836 L 1.8164062,-18 1.9433594,-18.175781 Z m 17.9999996,0 0.0332,0.01172 0.171876,0.238281 0,0.0332 -0.205079,0.06836 L 19.816406,-18 l 0.126953,-0.175781 z m -17.8085934,1.763672 -0.4863281,0.15625 0,0.511718 0.1738281,0.05469 0.3125,0.101562 L 2.4335938,-16 2.1347656,-16.412109 Z m 18.0000004,0 -0.486328,0.15625 0,0.511718 0.173828,0.05469 0.3125,0.101562 L 20.433594,-16 20.134766,-16.412109 Z m -18.1914066,0.236328 0.033203,0.01172 0.171875,0.238281 0,0.0332 -0.2050781,0.06836 L 1.8164062,-16 1.9433594,-16.175781 Z m 17.9999996,0 0.0332,0.01172 0.171876,0.238281 0,0.0332 -0.205079,0.06836 L 19.816406,-16 l 0.126953,-0.175781 z m -17.8085934,1.763672 -0.4863281,0.15625 0,0.511718 0.1738281,0.05469 0.3125,0.101562 L 2.4335938,-14 2.1347656,-14.412109 Z m 18.0000004,0 -0.486328,0.15625 0,0.511718 0.173828,0.05469 0.3125,0.101562 L 20.433594,-14 20.134766,-14.412109 Z m -18.1914066,0.236328 0.033203,0.01172 0.171875,0.238281 0,0.0332 -0.2050781,0.06836 L 1.8164062,-14 1.9433594,-14.175781 Z m 17.9999996,0 0.0332,0.01172 0.171876,0.238281 0,0.0332 -0.205079,0.06836 L 19.816406,-14 l 0.126953,-0.175781 z m -17.8085934,1.763672 -0.4863281,0.15625 0,0.511718 0.1738281,0.05469 0.3125,0.101562 L 2.4335938,-12 2.1347656,-12.412109 Z m 18.0000004,0 -0.486328,0.15625 0,0.511718 0.173828,0.05469 0.3125,0.101562 L 20.433594,-12 20.134766,-12.412109 Z m -18.1914066,0.236328 0.033203,0.01172 0.171875,0.238281 0,0.0332 -0.2050781,0.06836 L 1.8164062,-12 1.9433594,-12.175781 Z m 17.9999996,0 0.0332,0.01172 0.171876,0.238281 0,0.0332 -0.205079,0.06836 L 19.816406,-12 l 0.126953,-0.175781 z m -17.8085934,1.763672 -0.4863281,0.15625 0,0.5117184 0.1738281,0.054687 0.3125,0.1015625 L 2.4335938,-10 2.1347656,-10.412109 Z m 18.0000004,0 -0.486328,0.15625 0,0.5117184 0.173828,0.054687 0.3125,0.1015625 L 20.433594,-10 20.134766,-10.412109 Z m -18.1914066,0.236328 0.033203,0.01172 0.171875,0.2382808 0,0.033203 -0.2050781,0.068359 L 1.8164062,-10 1.9433594,-10.175781 Z m 17.9999996,0 0.0332,0.01172 0.171876,0.2382808 0,0.033203 -0.205079,0.068359 L 19.816406,-10 l 0.126953,-0.175781 z m -17.8085934,1.7636716 -0.4863281,0.15625 0,0.5117188 0.1738281,0.054687 0.3125,0.1015625 L 2.4335938,-8 2.1347656,-8.4121094 Z m 18.0000004,0 -0.486328,0.15625 0,0.5117188 0.173828,0.054687 0.3125,0.1015625 L 20.433594,-8 20.134766,-8.4121094 Z m -18.1914066,0.2363282 0.033203,0.011719 0.171875,0.2382813 0,0.033203 -0.2050781,0.068359 L 1.8164062,-8 1.9433594,-8.1757812 Z m 17.9999996,0 0.0332,0.011719 0.171876,0.2382813 0,0.033203 -0.205079,0.068359 L 19.816406,-8 19.943359,-8.1757812 Z m -17.8085934,1.7636718 -0.4863281,0.15625 0,0.5117188 0.1738281,0.054687 0.3125,0.1015625 L 2.4335938,-6 2.1347656,-6.4121094 Z m 18.0000004,0 -0.486328,0.15625 0,0.5117188 0.173828,0.054687 0.3125,0.1015625 L 20.433594,-6 20.134766,-6.4121094 Z m -18.1914066,0.2363282 0.033203,0.011719 0.171875,0.2382813 0,0.033203 -0.2050781,0.068359 L 1.8164062,-6 1.9433594,-6.1757812 Z m 17.9999996,0 0.0332,0.011719 0.171876,0.2382813 0,0.033203 -0.205079,0.068359 L 19.816406,-6 19.943359,-6.1757812 Z m -17.8085934,1.7636718 -0.4863281,0.15625 0,0.5117188 0.1738281,0.054687 0.3125,0.1015625 L 2.4335938,-4 2.1347656,-4.4121094 Z m 18.0000004,0 -0.486328,0.15625 0,0.5117188 0.173828,0.054687 0.3125,0.1015625 L 20.433594,-4 20.134766,-4.4121094 Z m -18.1914066,0.2363282 0.033203,0.011719 0.171875,0.2382813 0,0.033203 -0.2050781,0.068359 L 1.8164062,-4 1.9433594,-4.1757812 Z m 17.9999996,0 0.0332,0.011719 0.171876,0.2382813 0,0.033203 -0.205079,0.068359 L 19.816406,-4 19.943359,-4.1757812 Z m -17.8085934,1.7636718 -0.4863281,0.15625 0,0.5117188 0.1738281,0.054687 0.3125,0.1015625 L 2.4335938,-2 2.1347656,-2.4121094 Z m 18.0000004,0 -0.486328,0.15625 0,0.5117188 0.173828,0.054687 0.3125,0.1015625 L 20.433594,-2 20.134766,-2.4121094 Z m -18.1914066,0.2363282 0.033203,0.011719 0.171875,0.2382813 0,0.033203 -0.2050781,0.068359 L 1.8164062,-2 1.9433594,-2.1757812 Z m 17.9999996,0 0.0332,0.011719 0.171876,0.2382813 0,0.033203 -0.205079,0.068359 L 19.816406,-2 19.943359,-2.1757812 Z"
     id="path4264"
     inkscape:connector-curvature="0" />
</svg>
