<?xml version="1.0" encoding="UTF-8" standalone="no"?>
<svg
   xmlns:dc="http://purl.org/dc/elements/1.1/"
   xmlns:cc="http://creativecommons.org/ns#"
   xmlns:rdf="http://www.w3.org/1999/02/22-rdf-syntax-ns#"
   xmlns:svg="http://www.w3.org/2000/svg"
   xmlns="http://www.w3.org/2000/svg"
   xmlns:sodipodi="http://sodipodi.sourceforge.net/DTD/sodipodi-0.dtd"
   xmlns:inkscape="http://www.inkscape.org/namespaces/inkscape"
   width="48mm"
   height="330mm"
   viewBox="0 -330 48 330"
   version="1.1"
   id="svg4155"
   inkscape:version="0.91 r13725"
   sodipodi:docname="pouch-body.svg">
  <metadata
     id="metadata4165">
    <rdf:RDF>
      <cc:Work
         rdf:about="">
        <dc:format>image/svg+xml</dc:format>
        <dc:type
           rdf:resource="http://purl.org/dc/dcmitype/StillImage" />
        <dc:title>OpenSCAD Model</dc:title>
      </cc:Work>
    </rdf:RDF>
  </metadata>
  <defs
     id="defs4163" />
  <sodipodi:namedview
     pagecolor="#ffffff"
     bordercolor="#666666"
     borderopacity="1"
     objecttolerance="10"
     gridtolerance="10"
     guidetolerance="10"
     inkscape:pageopacity="0"
     inkscape:pageshadow="2"
     inkscape:window-width="1855"
     inkscape:window-height="1056"
     id="namedview4161"
     showgrid="false"
     inkscape:zoom="1.5736027"
     inkscape:cx="114.19858"
     inkscape:cy="567.37225"
     inkscape:window-x="65"
     inkscape:window-y="24"
     inkscape:window-maximized="1"
     inkscape:current-layer="svg4155" />
  <title
     id="title4157">OpenSCAD Model</title>
  <path
     style="color:#000000;font-style:normal;font-variant:normal;font-weight:normal;font-stretch:normal;font-size:medium;line-height:normal;font-family:sans-serif;text-indent:0;text-align:start;text-decoration:none;text-decoration-line:none;text-decoration-style:solid;text-decoration-color:#000000;letter-spacing:normal;word-spacing:normal;text-transform:none;direction:ltr;block-progression:tb;writing-mode:lr-tb;baseline-shift:baseline;text-anchor:start;white-space:normal;clip-rule:nonzero;display:inline;overflow:visible;visibility:visible;opacity:1;isolation:auto;mix-blend-mode:normal;color-interpolation:sRGB;color-interpolation-filters:linearRGB;solid-color:#000000;solid-opacity:1;fill:#000000;fill-opacity:1;fill-rule:nonzero;stroke:none;stroke-width:0.50009781;stroke-linecap:butt;stroke-linejoin:miter;stroke-miterlimit:4;stroke-dasharray:none;stroke-dashoffset:0;stroke-opacity:1;color-rendering:auto;image-rendering:auto;shape-rendering:auto;text-rendering:auto;enable-background:accumulate"
     d="m 21.480469,-330.25 -4.931641,0.43945 -4.607422,0.85938 -4.0898435,1.24414 -3.3945313,1.58008 -2.5585937,1.85547 -1.60351562,2.06836 -0.54492188,2.17187 0,320.28125 48.5,0 0,-320.28125 -0.0078,-0.0293 -0.53711,-2.14257 -1.603516,-2.06836 -2.558593,-1.85547 -3.394531,-1.58008 -4.089844,-1.24414 -4.607422,-0.85938 -4.931641,-0.43945 -5.039062,0 z m 0.02148,0.5 4.996094,0 4.884765,0.43555 4.558594,0.84961 4.027344,1.22656 3.320312,1.54492 2.460938,1.78516 1.496094,1.92968 0.503906,2.00782 0,319.7207 -47.5,0 0,-319.71875 0.50390625,-2.00977 L 2.25,-323.9082 l 2.4609375,-1.78516 3.3203125,-1.54492 4.027344,-1.22656 4.558594,-0.84961 4.884765,-0.43555 z m -19.3691405,129.33594 -0.484375,0.16015 0,0.50782 0.171875,0.0566 0.3125,0.10351 L 2.4335938,-200 2.1328125,-200.41406 Z m 43.9999995,0 -0.484374,0.16015 0,0.50782 0.171874,0.0566 0.3125,0.10351 0.300782,-0.41406 -0.300782,-0.41406 z m -44.1894526,0.23828 0.033203,0.0117 0.171875,0.23633 0,0.0351 -0.2050781,0.0684 L 1.8164062,-200 l 0.1269532,-0.17578 z m 43.9999996,0 0.0332,0.0117 0.171876,0.23633 0,0.0351 -0.205079,0.0684 -0.126953,-0.17578 0.126953,-0.17578 z m -43.8105465,1.76172 -0.484375,0.16015 0,0.50782 0.171875,0.0566 0.3125,0.10351 L 2.4335938,-198 2.1328125,-198.41406 Z m 43.9999995,0 -0.484374,0.16015 0,0.50782 0.171874,0.0566 0.3125,0.10351 0.300782,-0.41406 -0.300782,-0.41406 z m -44.1894526,0.23828 0.033203,0.0117 0.171875,0.23633 0,0.0351 -0.2050781,0.0684 L 1.8164062,-198 l 0.1269532,-0.17578 z m 43.9999996,0 0.0332,0.0117 0.171876,0.23633 0,0.0351 -0.205079,0.0684 -0.126953,-0.17578 0.126953,-0.17578 z m -43.8105465,1.76172 -0.484375,0.16015 0,0.50782 0.171875,0.0566 0.3125,0.10351 L 2.4335938,-196 2.1328125,-196.41406 Z m 43.9999995,0 -0.484374,0.16015 0,0.50782 0.171874,0.0566 0.3125,0.10351 0.300782,-0.41406 -0.300782,-0.41406 z m -44.1894526,0.23828 0.033203,0.0117 0.171875,0.23633 0,0.0351 -0.2050781,0.0684 L 1.8164062,-196 l 0.1269532,-0.17578 z m 43.9999996,0 0.0332,0.0117 0.171876,0.23633 0,0.0351 -0.205079,0.0684 -0.126953,-0.17578 0.126953,-0.17578 z m -43.8105465,1.76172 -0.484375,0.16015 0,0.50782 0.171875,0.0566 0.3125,0.10351 L 2.4335938,-194 2.1328125,-194.41406 Z m 43.9999995,0 -0.484374,0.16015 0,0.50782 0.171874,0.0566 0.3125,0.10351 0.300782,-0.41406 -0.300782,-0.41406 z m -44.1894526,0.23828 0.033203,0.0117 0.171875,0.23633 0,0.0351 -0.2050781,0.0684 L 1.8164062,-194 l 0.1269532,-0.17578 z m 43.9999996,0 0.0332,0.0117 0.171876,0.23633 0,0.0351 -0.205079,0.0684 -0.126953,-0.17578 0.126953,-0.17578 z m -43.8105465,1.76172 -0.484375,0.16015 0,0.50782 0.171875,0.0566 0.3125,0.10351 L 2.4335938,-192 2.1328125,-192.41406 Z m 43.9999995,0 -0.484374,0.16015 0,0.50782 0.171874,0.0566 0.3125,0.10351 0.300782,-0.41406 -0.300782,-0.41406 z m -44.1894526,0.23828 0.033203,0.0117 0.171875,0.23633 0,0.0351 -0.2050781,0.0684 L 1.8164062,-192 l 0.1269532,-0.17578 z m 43.9999996,0 0.0332,0.0117 0.171876,0.23633 0,0.0351 -0.205079,0.0684 -0.126953,-0.17578 0.126953,-0.17578 z m -43.8105465,1.76172 -0.484375,0.16015 0,0.50782 0.171875,0.0566 0.3125,0.10351 L 2.4335938,-190 2.1328125,-190.41406 Z m 43.9999995,0 -0.484374,0.16015 0,0.50782 0.171874,0.0566 0.3125,0.10351 0.300782,-0.41406 -0.300782,-0.41406 z m -44.1894526,0.23828 0.033203,0.0117 0.171875,0.23633 0,0.0351 -0.2050781,0.0684 L 1.8164062,-190 l 0.1269532,-0.17578 z m 43.9999996,0 0.0332,0.0117 0.171876,0.23633 0,0.0351 -0.205079,0.0684 -0.126953,-0.17578 0.126953,-0.17578 z m -43.8105465,1.76172 -0.484375,0.16015 0,0.50782 0.171875,0.0566 0.3125,0.10351 L 2.4335938,-188 2.1328125,-188.41406 Z m 43.9999995,0 -0.484374,0.16015 0,0.50782 0.171874,0.0566 0.3125,0.10351 0.300782,-0.41406 -0.300782,-0.41406 z m -44.1894526,0.23828 0.033203,0.0117 0.171875,0.23633 0,0.0351 -0.2050781,0.0684 L 1.8164062,-188 l 0.1269532,-0.17578 z m 43.9999996,0 0.0332,0.0117 0.171876,0.23633 0,0.0351 -0.205079,0.0684 -0.126953,-0.17578 0.126953,-0.17578 z m -43.8105465,1.76172 -0.484375,0.16015 0,0.50782 0.171875,0.0566 0.3125,0.10351 L 2.4335938,-186 2.1328125,-186.41406 Z m 43.9999995,0 -0.484374,0.16015 0,0.50782 0.171874,0.0566 0.3125,0.10351 0.300782,-0.41406 -0.300782,-0.41406 z m -44.1894526,0.23828 0.033203,0.0117 0.171875,0.23633 0,0.0351 -0.2050781,0.0684 L 1.8164062,-186 l 0.1269532,-0.17578 z m 43.9999996,0 0.0332,0.0117 0.171876,0.23633 0,0.0351 -0.205079,0.0684 -0.126953,-0.17578 0.126953,-0.17578 z m -43.8105465,1.76172 -0.484375,0.16015 0,0.50782 0.171875,0.0566 0.3125,0.10351 L 2.4335938,-184 2.1328125,-184.41406 Z m 43.9999995,0 -0.484374,0.16015 0,0.50782 0.171874,0.0566 0.3125,0.10351 0.300782,-0.41406 -0.300782,-0.41406 z m -44.1894526,0.23828 0.033203,0.0117 0.171875,0.23633 0,0.0351 -0.2050781,0.0684 L 1.8164062,-184 l 0.1269532,-0.17578 z m 43.9999996,0 0.0332,0.0117 0.171876,0.23633 0,0.0351 -0.205079,0.0684 -0.126953,-0.17578 0.126953,-0.17578 z m -43.8105465,1.76172 -0.484375,0.16015 0,0.50782 0.171875,0.0566 0.3125,0.10351 L 2.4335938,-182 2.1328125,-182.41406 Z m 43.9999995,0 -0.484374,0.16015 0,0.50782 0.171874,0.0566 0.3125,0.10351 0.300782,-0.41406 -0.300782,-0.41406 z m -44.1894526,0.23828 0.033203,0.0117 0.171875,0.23633 0,0.0351 -0.2050781,0.0684 L 1.8164062,-182 l 0.1269532,-0.17578 z m 43.9999996,0 0.0332,0.0117 0.171876,0.23633 0,0.0351 -0.205079,0.0684 -0.126953,-0.17578 0.126953,-0.17578 z m -43.8105465,1.76172 -0.484375,0.16015 0,0.50782 0.171875,0.0566 0.3125,0.10351 L 2.4335938,-180 2.1328125,-180.41406 Z m 43.9999995,0 -0.484374,0.16015 0,0.50782 0.171874,0.0566 0.3125,0.10351 0.300782,-0.41406 -0.300782,-0.41406 z m -44.1894526,0.23828 0.033203,0.0117 0.171875,0.23633 0,0.0351 -0.2050781,0.0684 L 1.8164062,-180 l 0.1269532,-0.17578 z m 43.9999996,0 0.0332,0.0117 0.171876,0.23633 0,0.0351 -0.205079,0.0684 -0.126953,-0.17578 0.126953,-0.17578 z m -43.8105465,1.76172 -0.484375,0.16015 0,0.50782 0.171875,0.0566 0.3125,0.10351 L 2.4335938,-178 2.1328125,-178.41406 Z m 43.9999995,0 -0.484374,0.16015 0,0.50782 0.171874,0.0566 0.3125,0.10351 0.300782,-0.41406 -0.300782,-0.41406 z m -44.1894526,0.23828 0.033203,0.0117 0.171875,0.23633 0,0.0351 -0.2050781,0.0684 L 1.8164062,-178 l 0.1269532,-0.17578 z m 43.9999996,0 0.0332,0.0117 0.171876,0.23633 0,0.0351 -0.205079,0.0684 -0.126953,-0.17578 0.126953,-0.17578 z m -43.8105465,1.76172 -0.484375,0.16015 0,0.50782 0.171875,0.0566 0.3125,0.10351 L 2.4335938,-176 2.1328125,-176.41406 Z m 43.9999995,0 -0.484374,0.16015 0,0.50782 0.171874,0.0566 0.3125,0.10351 0.300782,-0.41406 -0.300782,-0.41406 z m -44.1894526,0.23828 0.033203,0.0117 0.171875,0.23633 0,0.0351 -0.2050781,0.0684 L 1.8164062,-176 l 0.1269532,-0.17578 z m 43.9999996,0 0.0332,0.0117 0.171876,0.23633 0,0.0351 -0.205079,0.0684 -0.126953,-0.17578 0.126953,-0.17578 z m -43.8105465,1.76172 -0.484375,0.16015 0,0.50782 0.171875,0.0566 0.3125,0.10351 L 2.4335938,-174 2.1328125,-174.41406 Z m 43.9999995,0 -0.484374,0.16015 0,0.50782 0.171874,0.0566 0.3125,0.10351 0.300782,-0.41406 -0.300782,-0.41406 z m -44.1894526,0.23828 0.033203,0.0117 0.171875,0.23633 0,0.0351 -0.2050781,0.0684 L 1.8164062,-174 l 0.1269532,-0.17578 z m 43.9999996,0 0.0332,0.0117 0.171876,0.23633 0,0.0351 -0.205079,0.0684 -0.126953,-0.17578 0.126953,-0.17578 z m -43.8105465,1.76172 -0.484375,0.16015 0,0.50782 0.171875,0.0566 0.3125,0.10351 L 2.4335938,-172 2.1328125,-172.41406 Z m 43.9999995,0 -0.484374,0.16015 0,0.50782 0.171874,0.0566 0.3125,0.10351 0.300782,-0.41406 -0.300782,-0.41406 z m -44.1894526,0.23828 0.033203,0.0117 0.171875,0.23633 0,0.0351 -0.2050781,0.0684 L 1.8164062,-172 l 0.1269532,-0.17578 z m 43.9999996,0 0.0332,0.0117 0.171876,0.23633 0,0.0351 -0.205079,0.0684 -0.126953,-0.17578 0.126953,-0.17578 z m -43.8105465,1.76172 -0.484375,0.16015 0,0.50782 0.171875,0.0566 0.3125,0.10351 L 2.4335938,-170 2.1328125,-170.41406 Z m 43.9999995,0 -0.484374,0.16015 0,0.50782 0.171874,0.0566 0.3125,0.10351 0.300782,-0.41406 -0.300782,-0.41406 z m -44.1894526,0.23828 0.033203,0.0117 0.171875,0.23633 0,0.0351 -0.2050781,0.0684 L 1.8164062,-170 l 0.1269532,-0.17578 z m 43.9999996,0 0.0332,0.0117 0.171876,0.23633 0,0.0351 -0.205079,0.0684 -0.126953,-0.17578 0.126953,-0.17578 z m -43.8105465,1.76172 -0.484375,0.16015 0,0.50782 0.171875,0.0566 0.3125,0.10351 L 2.4335938,-168 2.1328125,-168.41406 Z m 43.9999995,0 -0.484374,0.16015 0,0.50782 0.171874,0.0566 0.3125,0.10351 0.300782,-0.41406 -0.300782,-0.41406 z m -44.1894526,0.23828 0.033203,0.0117 0.171875,0.23633 0,0.0351 -0.2050781,0.0684 L 1.8164062,-168 l 0.1269532,-0.17578 z m 43.9999996,0 0.0332,0.0117 0.171876,0.23633 0,0.0351 -0.205079,0.0684 -0.126953,-0.17578 0.126953,-0.17578 z m -43.8105465,1.76172 -0.484375,0.16015 0,0.50782 0.171875,0.0566 0.3125,0.10351 L 2.4335938,-166 2.1328125,-166.41406 Z m 43.9999995,0 -0.484374,0.16015 0,0.50782 0.171874,0.0566 0.3125,0.10351 0.300782,-0.41406 -0.300782,-0.41406 z m -44.1894526,0.23828 0.033203,0.0117 0.171875,0.23633 0,0.0351 -0.2050781,0.0684 L 1.8164062,-166 l 0.1269532,-0.17578 z m 43.9999996,0 0.0332,0.0117 0.171876,0.23633 0,0.0351 -0.205079,0.0684 -0.126953,-0.17578 0.126953,-0.17578 z m -43.8105465,1.76172 -0.484375,0.16015 0,0.50782 0.171875,0.0566 0.3125,0.10351 L 2.4335938,-164 2.1328125,-164.41406 Z m 43.9999995,0 -0.484374,0.16015 0,0.50782 0.171874,0.0566 0.3125,0.10351 0.300782,-0.41406 -0.300782,-0.41406 z m -44.1894526,0.23828 0.033203,0.0117 0.171875,0.23633 0,0.0351 -0.2050781,0.0684 L 1.8164062,-164 l 0.1269532,-0.17578 z m 43.9999996,0 0.0332,0.0117 0.171876,0.23633 0,0.0351 -0.205079,0.0684 -0.126953,-0.17578 0.126953,-0.17578 z m -43.8105465,1.76172 -0.484375,0.16015 0,0.50782 0.171875,0.0566 0.3125,0.10351 L 2.4335938,-162 2.1328125,-162.41406 Z m 43.9999995,0 -0.484374,0.16015 0,0.50782 0.171874,0.0566 0.3125,0.10351 0.300782,-0.41406 -0.300782,-0.41406 z m -44.1894526,0.23828 0.033203,0.0117 0.171875,0.23633 0,0.0351 -0.2050781,0.0684 L 1.8164062,-162 l 0.1269532,-0.17578 z m 43.9999996,0 0.0332,0.0117 0.171876,0.23633 0,0.0351 -0.205079,0.0684 -0.126953,-0.17578 0.126953,-0.17578 z m -43.8105465,1.76172 -0.484375,0.16015 0,0.50782 0.171875,0.0566 0.3125,0.10351 L 2.4335938,-160 2.1328125,-160.41406 Z m 43.9999995,0 -0.484374,0.16015 0,0.50782 0.171874,0.0566 0.3125,0.10351 0.300782,-0.41406 -0.300782,-0.41406 z m -44.1894526,0.23828 0.033203,0.0117 0.171875,0.23633 0,0.0351 -0.2050781,0.0684 L 1.8164062,-160 l 0.1269532,-0.17578 z m 43.9999996,0 0.0332,0.0117 0.171876,0.23633 0,0.0351 -0.205079,0.0684 -0.126953,-0.17578 0.126953,-0.17578 z m -43.8105465,1.76172 -0.484375,0.16015 0,0.50782 0.171875,0.0566 0.3125,0.10351 L 2.4335938,-158 2.1328125,-158.41406 Z m 43.9999995,0 -0.484374,0.16015 0,0.50782 0.171874,0.0566 0.3125,0.10351 0.300782,-0.41406 -0.300782,-0.41406 z m -44.1894526,0.23828 0.033203,0.0117 0.171875,0.23633 0,0.0351 -0.2050781,0.0684 L 1.8164062,-158 l 0.1269532,-0.17578 z m 43.9999996,0 0.0332,0.0117 0.171876,0.23633 0,0.0351 -0.205079,0.0684 -0.126953,-0.17578 0.126953,-0.17578 z m -43.8105465,1.76172 -0.484375,0.16015 0,0.50782 0.171875,0.0566 0.3125,0.10351 L 2.4335938,-156 2.1328125,-156.41406 Z m 43.9999995,0 -0.484374,0.16015 0,0.50782 0.171874,0.0566 0.3125,0.10351 0.300782,-0.41406 -0.300782,-0.41406 z m -44.1894526,0.23828 0.033203,0.0117 0.171875,0.23633 0,0.0351 -0.2050781,0.0684 L 1.8164062,-156 l 0.1269532,-0.17578 z m 43.9999996,0 0.0332,0.0117 0.171876,0.23633 0,0.0351 -0.205079,0.0684 -0.126953,-0.17578 0.126953,-0.17578 z m -43.8105465,1.76172 -0.484375,0.16015 0,0.50782 0.171875,0.0566 0.3125,0.10351 L 2.4335938,-154 2.1328125,-154.41406 Z m 43.9999995,0 -0.484374,0.16015 0,0.50782 0.171874,0.0566 0.3125,0.10351 0.300782,-0.41406 -0.300782,-0.41406 z m -44.1894526,0.23828 0.033203,0.0117 0.171875,0.23633 0,0.0351 -0.2050781,0.0684 L 1.8164062,-154 l 0.1269532,-0.17578 z m 43.9999996,0 0.0332,0.0117 0.171876,0.23633 0,0.0351 -0.205079,0.0684 -0.126953,-0.17578 0.126953,-0.17578 z m -43.8105465,1.76172 -0.484375,0.16015 0,0.50782 0.171875,0.0566 0.3125,0.10351 L 2.4335938,-152 2.1328125,-152.41406 Z m 43.9999995,0 -0.484374,0.16015 0,0.50782 0.171874,0.0566 0.3125,0.10351 0.300782,-0.41406 -0.300782,-0.41406 z m -44.1894526,0.23828 0.033203,0.0117 0.171875,0.23633 0,0.0351 -0.2050781,0.0684 L 1.8164062,-152 l 0.1269532,-0.17578 z m 43.9999996,0 0.0332,0.0117 0.171876,0.23633 0,0.0351 -0.205079,0.0684 -0.126953,-0.17578 0.126953,-0.17578 z m -43.8105465,1.76172 -0.484375,0.16015 0,0.50782 0.171875,0.0566 0.3125,0.10351 L 2.4335938,-150 2.1328125,-150.41406 Z m 43.9999995,0 -0.484374,0.16015 0,0.50782 0.171874,0.0566 0.3125,0.10351 0.300782,-0.41406 -0.300782,-0.41406 z m -44.1894526,0.23828 0.033203,0.0117 0.171875,0.23633 0,0.0351 -0.2050781,0.0684 L 1.8164062,-150 l 0.1269532,-0.17578 z m 43.9999996,0 0.0332,0.0117 0.171876,0.23633 0,0.0351 -0.205079,0.0684 -0.126953,-0.17578 0.126953,-0.17578 z m -43.8105465,1.76172 -0.484375,0.16015 0,0.50782 0.171875,0.0566 0.3125,0.10351 L 2.4335938,-148 2.1328125,-148.41406 Z m 43.9999995,0 -0.484374,0.16015 0,0.50782 0.171874,0.0566 0.3125,0.10351 0.300782,-0.41406 -0.300782,-0.41406 z m -44.1894526,0.23828 0.033203,0.0117 0.171875,0.23633 0,0.0351 -0.2050781,0.0684 L 1.8164062,-148 l 0.1269532,-0.17578 z m 43.9999996,0 0.0332,0.0117 0.171876,0.23633 0,0.0351 -0.205079,0.0684 -0.126953,-0.17578 0.126953,-0.17578 z m -43.8105465,1.76172 -0.484375,0.16015 0,0.50782 0.171875,0.0566 0.3125,0.10351 L 2.4335938,-146 2.1328125,-146.41406 Z m 43.9999995,0 -0.484374,0.16015 0,0.50782 0.171874,0.0566 0.3125,0.10351 0.300782,-0.41406 -0.300782,-0.41406 z m -44.1894526,0.23828 0.033203,0.0117 0.171875,0.23633 0,0.0351 -0.2050781,0.0684 L 1.8164062,-146 l 0.1269532,-0.17578 z m 43.9999996,0 0.0332,0.0117 0.171876,0.23633 0,0.0351 -0.205079,0.0684 -0.126953,-0.17578 0.126953,-0.17578 z m -43.8105465,1.76172 -0.484375,0.16015 0,0.50782 0.171875,0.0566 0.3125,0.10351 L 2.4335938,-144 2.1328125,-144.41406 Z m 43.9999995,0 -0.484374,0.16015 0,0.50782 0.171874,0.0566 0.3125,0.10351 0.300782,-0.41406 -0.300782,-0.41406 z m -44.1894526,0.23828 0.033203,0.0117 0.171875,0.23633 0,0.0351 -0.2050781,0.0684 L 1.8164062,-144 l 0.1269532,-0.17578 z m 43.9999996,0 0.0332,0.0117 0.171876,0.23633 0,0.0351 -0.205079,0.0684 -0.126953,-0.17578 0.126953,-0.17578 z m -43.8105465,1.76172 -0.484375,0.16015 0,0.50782 0.171875,0.0566 0.3125,0.10351 L 2.4335938,-142 2.1328125,-142.41406 Z m 43.9999995,0 -0.484374,0.16015 0,0.50782 0.171874,0.0566 0.3125,0.10351 0.300782,-0.41406 -0.300782,-0.41406 z m -44.1894526,0.23828 0.033203,0.0117 0.171875,0.23633 0,0.0351 -0.2050781,0.0684 L 1.8164062,-142 l 0.1269532,-0.17578 z m 43.9999996,0 0.0332,0.0117 0.171876,0.23633 0,0.0351 -0.205079,0.0684 -0.126953,-0.17578 0.126953,-0.17578 z m -43.8105465,1.76172 -0.484375,0.16015 0,0.50782 0.171875,0.0566 0.3125,0.10351 L 2.4335938,-140 2.1328125,-140.41406 Z m 43.9999995,0 -0.484374,0.16015 0,0.50782 0.171874,0.0566 0.3125,0.10351 0.300782,-0.41406 -0.300782,-0.41406 z m -44.1894526,0.23828 0.033203,0.0117 0.171875,0.23633 0,0.0351 -0.2050781,0.0684 L 1.8164062,-140 l 0.1269532,-0.17578 z m 43.9999996,0 0.0332,0.0117 0.171876,0.23633 0,0.0351 -0.205079,0.0684 -0.126953,-0.17578 0.126953,-0.17578 z m -43.8105465,1.76172 -0.484375,0.16015 0,0.50782 0.171875,0.0566 0.3125,0.10351 L 2.4335938,-138 2.1328125,-138.41406 Z m 43.9999995,0 -0.484374,0.16015 0,0.50782 0.171874,0.0566 0.3125,0.10351 0.300782,-0.41406 -0.300782,-0.41406 z m -44.1894526,0.23828 0.033203,0.0117 0.171875,0.23633 0,0.0351 -0.2050781,0.0684 L 1.8164062,-138 l 0.1269532,-0.17578 z m 43.9999996,0 0.0332,0.0117 0.171876,0.23633 0,0.0351 -0.205079,0.0684 -0.126953,-0.17578 0.126953,-0.17578 z m -43.8105465,1.76172 -0.484375,0.16015 0,0.50782 0.171875,0.0566 0.3125,0.10351 L 2.4335938,-136 2.1328125,-136.41406 Z m 43.9999995,0 -0.484374,0.16015 0,0.50782 0.171874,0.0566 0.3125,0.10351 0.300782,-0.41406 -0.300782,-0.41406 z m -44.1894526,0.23828 0.033203,0.0117 0.171875,0.23633 0,0.0351 -0.2050781,0.0684 L 1.8164062,-136 l 0.1269532,-0.17578 z m 43.9999996,0 0.0332,0.0117 0.171876,0.23633 0,0.0351 -0.205079,0.0684 -0.126953,-0.17578 0.126953,-0.17578 z m -43.8105465,1.76172 -0.484375,0.16015 0,0.50782 0.171875,0.0566 0.3125,0.10351 L 2.4335938,-134 2.1328125,-134.41406 Z m 43.9999995,0 -0.484374,0.16015 0,0.50782 0.171874,0.0566 0.3125,0.10351 0.300782,-0.41406 -0.300782,-0.41406 z m -44.1894526,0.23828 0.033203,0.0117 0.171875,0.23633 0,0.0351 -0.2050781,0.0684 L 1.8164062,-134 l 0.1269532,-0.17578 z m 43.9999996,0 0.0332,0.0117 0.171876,0.23633 0,0.0351 -0.205079,0.0684 -0.126953,-0.17578 0.126953,-0.17578 z m -43.8105465,1.76172 -0.484375,0.16015 0,0.50782 0.171875,0.0566 0.3125,0.10351 L 2.4335938,-132 2.1328125,-132.41406 Z m 43.9999995,0 -0.484374,0.16015 0,0.50782 0.171874,0.0566 0.3125,0.10351 0.300782,-0.41406 -0.300782,-0.41406 z m -44.1894526,0.23828 0.033203,0.0117 0.171875,0.23633 0,0.0351 -0.2050781,0.0684 L 1.8164062,-132 l 0.1269532,-0.17578 z m 43.9999996,0 0.0332,0.0117 0.171876,0.23633 0,0.0351 -0.205079,0.0684 -0.126953,-0.17578 0.126953,-0.17578 z m -43.8105465,1.76172 -0.484375,0.16015 0,0.50782 0.171875,0.0566 0.3125,0.10351 L 2.4335938,-130 2.1328125,-130.41406 Z m 43.9999995,0 -0.484374,0.16015 0,0.50782 0.171874,0.0566 0.3125,0.10351 0.300782,-0.41406 -0.300782,-0.41406 z m -44.1894526,0.23828 0.033203,0.0117 0.171875,0.23633 0,0.0351 -0.2050781,0.0684 L 1.8164062,-130 l 0.1269532,-0.17578 z m 43.9999996,0 0.0332,0.0117 0.171876,0.23633 0,0.0351 -0.205079,0.0684 -0.126953,-0.17578 0.126953,-0.17578 z m -43.8105465,1.76172 -0.484375,0.16015 0,0.50782 0.171875,0.0566 0.3125,0.10351 L 2.4335938,-128 2.1328125,-128.41406 Z m 43.9999995,0 -0.484374,0.16015 0,0.50782 0.171874,0.0566 0.3125,0.10351 0.300782,-0.41406 -0.300782,-0.41406 z m -44.1894526,0.23828 0.033203,0.0117 0.171875,0.23633 0,0.0352 -0.2050781,0.0684 L 1.8164062,-128 l 0.1269532,-0.17578 z m 43.9999996,0 0.0332,0.0117 0.171876,0.23633 0,0.0352 -0.205079,0.0684 -0.126953,-0.17578 0.126953,-0.17578 z m -43.8105465,1.76172 -0.484375,0.16015 0,0.50782 0.171875,0.0566 0.3125,0.10351 L 2.4335938,-126 2.1328125,-126.41406 Z m 43.9999995,0 -0.484374,0.16015 0,0.50782 0.171874,0.0566 0.3125,0.10351 0.300782,-0.41406 -0.300782,-0.41406 z m -44.1894526,0.23828 0.033203,0.0117 0.171875,0.23633 0,0.0352 -0.2050781,0.0684 L 1.8164062,-126 l 0.1269532,-0.17578 z m 43.9999996,0 0.0332,0.0117 0.171876,0.23633 0,0.0352 -0.205079,0.0684 -0.126953,-0.17578 0.126953,-0.17578 z m -43.8105465,1.76172 -0.484375,0.16015 0,0.50782 0.171875,0.0566 0.3125,0.10351 L 2.4335938,-124 2.1328125,-124.41406 Z m 43.9999995,0 -0.484374,0.16015 0,0.50782 0.171874,0.0566 0.3125,0.10351 0.300782,-0.41406 -0.300782,-0.41406 z m -44.1894526,0.23828 0.033203,0.0117 0.171875,0.23633 0,0.0352 -0.2050781,0.0684 L 1.8164062,-124 l 0.1269532,-0.17578 z m 43.9999996,0 0.0332,0.0117 0.171876,0.23633 0,0.0352 -0.205079,0.0684 -0.126953,-0.17578 0.126953,-0.17578 z m -43.8105465,1.76172 -0.484375,0.16015 0,0.50782 0.171875,0.0566 0.3125,0.10351 L 2.4335938,-122 2.1328125,-122.41406 Z m 43.9999995,0 -0.484374,0.16015 0,0.50782 0.171874,0.0566 0.3125,0.10351 0.300782,-0.41406 -0.300782,-0.41406 z m -44.1894526,0.23828 0.033203,0.0117 0.171875,0.23633 0,0.0352 -0.2050781,0.0684 L 1.8164062,-122 l 0.1269532,-0.17578 z m 43.9999996,0 0.0332,0.0117 0.171876,0.23633 0,0.0352 -0.205079,0.0684 -0.126953,-0.17578 0.126953,-0.17578 z m -43.8105465,1.76172 -0.484375,0.16015 0,0.50782 0.171875,0.0566 0.3125,0.10351 L 2.4335938,-120 2.1328125,-120.41406 Z m 43.9999995,0 -0.484374,0.16015 0,0.50782 0.171874,0.0566 0.3125,0.10351 0.300782,-0.41406 -0.300782,-0.41406 z m -44.1894526,0.23828 0.033203,0.0117 0.171875,0.23633 0,0.0352 -0.2050781,0.0684 L 1.8164062,-120 l 0.1269532,-0.17578 z m 43.9999996,0 0.0332,0.0117 0.171876,0.23633 0,0.0352 -0.205079,0.0684 -0.126953,-0.17578 0.126953,-0.17578 z m -43.8105465,1.76172 -0.484375,0.16015 0,0.50782 0.171875,0.0566 0.3125,0.10351 L 2.4335938,-118 2.1328125,-118.41406 Z m 43.9999995,0 -0.484374,0.16015 0,0.50782 0.171874,0.0566 0.3125,0.10351 0.300782,-0.41406 -0.300782,-0.41406 z m -44.1894526,0.23828 0.033203,0.0117 0.171875,0.23633 0,0.0352 -0.2050781,0.0684 L 1.8164062,-118 l 0.1269532,-0.17578 z m 43.9999996,0 0.0332,0.0117 0.171876,0.23633 0,0.0352 -0.205079,0.0684 -0.126953,-0.17578 0.126953,-0.17578 z m -43.8105465,1.76172 -0.484375,0.16015 0,0.50782 0.171875,0.0566 0.3125,0.10351 L 2.4335938,-116 2.1328125,-116.41406 Z m 43.9999995,0 -0.484374,0.16015 0,0.50782 0.171874,0.0566 0.3125,0.10351 0.300782,-0.41406 -0.300782,-0.41406 z m -44.1894526,0.23828 0.033203,0.0117 0.171875,0.23633 0,0.0352 -0.2050781,0.0684 L 1.8164062,-116 l 0.1269532,-0.17578 z m 43.9999996,0 0.0332,0.0117 0.171876,0.23633 0,0.0352 -0.205079,0.0684 -0.126953,-0.17578 0.126953,-0.17578 z m -43.8105465,1.76172 -0.484375,0.16015 0,0.50782 0.171875,0.0566 0.3125,0.10351 L 2.4335938,-114 2.1328125,-114.41406 Z m 43.9999995,0 -0.484374,0.16015 0,0.50782 0.171874,0.0566 0.3125,0.10351 0.300782,-0.41406 -0.300782,-0.41406 z m -44.1894526,0.23828 0.033203,0.0117 0.171875,0.23633 0,0.0352 -0.2050781,0.0684 L 1.8164062,-114 l 0.1269532,-0.17578 z m 43.9999996,0 0.0332,0.0117 0.171876,0.23633 0,0.0352 -0.205079,0.0684 -0.126953,-0.17578 0.126953,-0.17578 z m -43.8105465,1.76172 -0.484375,0.16015 0,0.50782 0.171875,0.0566 0.3125,0.10351 L 2.4335938,-112 2.1328125,-112.41406 Z m 43.9999995,0 -0.484374,0.16015 0,0.50782 0.171874,0.0566 0.3125,0.10351 0.300782,-0.41406 -0.300782,-0.41406 z m -44.1894526,0.23828 0.033203,0.0117 0.171875,0.23633 0,0.0352 -0.2050781,0.0684 L 1.8164062,-112 l 0.1269532,-0.17578 z m 43.9999996,0 0.0332,0.0117 0.171876,0.23633 0,0.0352 -0.205079,0.0684 -0.126953,-0.17578 0.126953,-0.17578 z m -43.8105465,1.76172 -0.484375,0.16015 0,0.50782 0.171875,0.0566 0.3125,0.10351 L 2.4335938,-110 2.1328125,-110.41406 Z m 43.9999995,0 -0.484374,0.16015 0,0.50782 0.171874,0.0566 0.3125,0.10351 0.300782,-0.41406 -0.300782,-0.41406 z m -44.1894526,0.23828 0.033203,0.0117 0.171875,0.23633 0,0.0352 -0.2050781,0.0684 L 1.8164062,-110 l 0.1269532,-0.17578 z m 43.9999996,0 0.0332,0.0117 0.171876,0.23633 0,0.0352 -0.205079,0.0684 -0.126953,-0.17578 0.126953,-0.17578 z m -43.8105465,1.76172 -0.484375,0.16015 0,0.50782 0.171875,0.0566 0.3125,0.10351 L 2.4335938,-108 2.1328125,-108.41406 Z m 43.9999995,0 -0.484374,0.16015 0,0.50782 0.171874,0.0566 0.3125,0.10351 0.300782,-0.41406 -0.300782,-0.41406 z m -44.1894526,0.23828 0.033203,0.0117 0.171875,0.23633 0,0.0352 -0.2050781,0.0684 L 1.8164062,-108 l 0.1269532,-0.17578 z m 43.9999996,0 0.0332,0.0117 0.171876,0.23633 0,0.0352 -0.205079,0.0684 -0.126953,-0.17578 0.126953,-0.17578 z m -43.8105465,1.76172 -0.484375,0.16015 0,0.50782 0.171875,0.0566 0.3125,0.10351 L 2.4335938,-106 2.1328125,-106.41406 Z m 43.9999995,0 -0.484374,0.16015 0,0.50782 0.171874,0.0566 0.3125,0.10351 0.300782,-0.41406 -0.300782,-0.41406 z m -44.1894526,0.23828 0.033203,0.0117 0.171875,0.23633 0,0.0352 -0.2050781,0.0684 L 1.8164062,-106 l 0.1269532,-0.17578 z m 43.9999996,0 0.0332,0.0117 0.171876,0.23633 0,0.0352 -0.205079,0.0684 -0.126953,-0.17578 0.126953,-0.17578 z m -43.8105465,1.76172 -0.484375,0.16015 0,0.50782 0.171875,0.0566 0.3125,0.10351 L 2.4335938,-104 2.1328125,-104.41406 Z m 43.9999995,0 -0.484374,0.16015 0,0.50782 0.171874,0.0566 0.3125,0.10351 0.300782,-0.41406 -0.300782,-0.41406 z m -44.1894526,0.23828 0.033203,0.0117 0.171875,0.23633 0,0.0352 -0.2050781,0.0684 L 1.8164062,-104 l 0.1269532,-0.17578 z m 43.9999996,0 0.0332,0.0117 0.171876,0.23633 0,0.0352 -0.205079,0.0684 -0.126953,-0.17578 0.126953,-0.17578 z m -43.8105465,1.76172 -0.484375,0.16015 0,0.50782 0.171875,0.0566 0.3125,0.10351 L 2.4335938,-102 2.1328125,-102.41406 Z m 43.9999995,0 -0.484374,0.16015 0,0.50782 0.171874,0.0566 0.3125,0.10351 0.300782,-0.41406 -0.300782,-0.41406 z m -44.1894526,0.23828 0.033203,0.0117 0.171875,0.23633 0,0.0352 -0.2050781,0.0684 L 1.8164062,-102 l 0.1269532,-0.17578 z m 43.9999996,0 0.0332,0.0117 0.171876,0.23633 0,0.0352 -0.205079,0.0684 -0.126953,-0.17578 0.126953,-0.17578 z m -43.8105465,1.76172 -0.484375,0.16015 0,0.509769 0.1738281,0.05469 0.3125,0.101562 L 2.4335938,-100 2.1328125,-100.41406 Z m 43.9999995,0 -0.484374,0.16015 0,0.509769 0.173828,0.05469 0.3125,0.101562 0.298828,-0.412109 -0.300782,-0.41406 z m -44.1894526,0.23828 0.033203,0.0117 0.171875,0.238279 0,0.0332 -0.2050781,0.06836 L 1.8164062,-100 l 0.1269532,-0.17578 z m 43.9999996,0 0.0332,0.0117 0.171876,0.238279 0,0.0332 -0.205079,0.06836 L 45.816406,-100 l 0.126953,-0.17578 z m -43.8085934,1.763671 -0.4863281,0.15625 0,0.511718 0.1738281,0.05469 0.3125,0.101562 L 2.4335938,-98 2.1347656,-98.412109 Z m 44.0000004,0 -0.486328,0.15625 0,0.511718 0.173828,0.05469 0.3125,0.101562 L 46.433594,-98 46.134766,-98.412109 Z m -44.1914066,0.236328 0.033203,0.01172 0.171875,0.238281 0,0.0332 -0.2050781,0.06836 L 1.8164062,-98 1.9433594,-98.175781 Z m 43.9999996,0 0.0332,0.01172 0.171876,0.238281 0,0.0332 -0.205079,0.06836 L 45.816406,-98 l 0.126953,-0.175781 z m -43.8085934,1.763672 -0.4863281,0.15625 0,0.511718 0.1738281,0.05469 0.3125,0.101562 L 2.4335938,-96 2.1347656,-96.412109 Z m 44.0000004,0 -0.486328,0.15625 0,0.511718 0.173828,0.05469 0.3125,0.101562 L 46.433594,-96 46.134766,-96.412109 Z m -44.1914066,0.236328 0.033203,0.01172 0.171875,0.238281 0,0.0332 -0.2050781,0.06836 L 1.8164062,-96 1.9433594,-96.175781 Z m 43.9999996,0 0.0332,0.01172 0.171876,0.238281 0,0.0332 -0.205079,0.06836 L 45.816406,-96 l 0.126953,-0.175781 z m -43.8085934,1.763672 -0.4863281,0.15625 0,0.511718 0.1738281,0.05469 0.3125,0.101562 L 2.4335938,-94 2.1347656,-94.412109 Z m 44.0000004,0 -0.486328,0.15625 0,0.511718 0.173828,0.05469 0.3125,0.101562 L 46.433594,-94 46.134766,-94.412109 Z m -44.1914066,0.236328 0.033203,0.01172 0.171875,0.238281 0,0.0332 -0.2050781,0.06836 L 1.8164062,-94 1.9433594,-94.175781 Z m 43.9999996,0 0.0332,0.01172 0.171876,0.238281 0,0.0332 -0.205079,0.06836 L 45.816406,-94 l 0.126953,-0.175781 z m -43.8085934,1.763672 -0.4863281,0.15625 0,0.511718 0.1738281,0.05469 0.3125,0.101562 L 2.4335938,-92 2.1347656,-92.412109 Z m 44.0000004,0 -0.486328,0.15625 0,0.511718 0.173828,0.05469 0.3125,0.101562 L 46.433594,-92 46.134766,-92.412109 Z m -44.1914066,0.236328 0.033203,0.01172 0.171875,0.238281 0,0.0332 -0.2050781,0.06836 L 1.8164062,-92 1.9433594,-92.175781 Z m 43.9999996,0 0.0332,0.01172 0.171876,0.238281 0,0.0332 -0.205079,0.06836 L 45.816406,-92 l 0.126953,-0.175781 z m -43.8085934,1.763672 -0.4863281,0.15625 0,0.511718 0.1738281,0.05469 0.3125,0.101562 L 2.4335938,-90 2.1347656,-90.412109 Z m 44.0000004,0 -0.486328,0.15625 0,0.511718 0.173828,0.05469 0.3125,0.101562 L 46.433594,-90 46.134766,-90.412109 Z m -44.1914066,0.236328 0.033203,0.01172 0.171875,0.238281 0,0.0332 -0.2050781,0.06836 L 1.8164062,-90 1.9433594,-90.175781 Z m 43.9999996,0 0.0332,0.01172 0.171876,0.238281 0,0.0332 -0.205079,0.06836 L 45.816406,-90 l 0.126953,-0.175781 z m -43.8085934,1.763672 -0.4863281,0.15625 0,0.511718 0.1738281,0.05469 0.3125,0.101562 L 2.4335938,-88 2.1347656,-88.412109 Z m 44.0000004,0 -0.486328,0.15625 0,0.511718 0.173828,0.05469 0.3125,0.101562 L 46.433594,-88 46.134766,-88.412109 Z m -44.1914066,0.236328 0.033203,0.01172 0.171875,0.238281 0,0.0332 -0.2050781,0.06836 L 1.8164062,-88 1.9433594,-88.175781 Z m 43.9999996,0 0.0332,0.01172 0.171876,0.238281 0,0.0332 -0.205079,0.06836 L 45.816406,-88 l 0.126953,-0.175781 z m -43.8085934,1.763672 -0.4863281,0.15625 0,0.511718 0.1738281,0.05469 0.3125,0.101562 L 2.4335938,-86 2.1347656,-86.412109 Z m 44.0000004,0 -0.486328,0.15625 0,0.511718 0.173828,0.05469 0.3125,0.101562 L 46.433594,-86 46.134766,-86.412109 Z m -44.1914066,0.236328 0.033203,0.01172 0.171875,0.238281 0,0.0332 -0.2050781,0.06836 L 1.8164062,-86 1.9433594,-86.175781 Z m 43.9999996,0 0.0332,0.01172 0.171876,0.238281 0,0.0332 -0.205079,0.06836 L 45.816406,-86 l 0.126953,-0.175781 z m -43.8085934,1.763672 -0.4863281,0.15625 0,0.511718 0.1738281,0.05469 0.3125,0.101562 L 2.4335938,-84 2.1347656,-84.412109 Z m 44.0000004,0 -0.486328,0.15625 0,0.511718 0.173828,0.05469 0.3125,0.101562 L 46.433594,-84 46.134766,-84.412109 Z m -44.1914066,0.236328 0.033203,0.01172 0.171875,0.238281 0,0.0332 -0.2050781,0.06836 L 1.8164062,-84 1.9433594,-84.175781 Z m 43.9999996,0 0.0332,0.01172 0.171876,0.238281 0,0.0332 -0.205079,0.06836 L 45.816406,-84 l 0.126953,-0.175781 z m -43.8085934,1.763672 -0.4863281,0.15625 0,0.511718 0.1738281,0.05469 0.3125,0.101562 L 2.4335938,-82 2.1347656,-82.412109 Z m 44.0000004,0 -0.486328,0.15625 0,0.511718 0.173828,0.05469 0.3125,0.101562 L 46.433594,-82 46.134766,-82.412109 Z m -44.1914066,0.236328 0.033203,0.01172 0.171875,0.238281 0,0.0332 -0.2050781,0.06836 L 1.8164062,-82 1.9433594,-82.175781 Z m 43.9999996,0 0.0332,0.01172 0.171876,0.238281 0,0.0332 -0.205079,0.06836 L 45.816406,-82 l 0.126953,-0.175781 z m -43.8085934,1.763672 -0.4863281,0.15625 0,0.511718 0.1738281,0.05469 0.3125,0.101562 L 2.4335938,-80 2.1347656,-80.412109 Z m 44.0000004,0 -0.486328,0.15625 0,0.511718 0.173828,0.05469 0.3125,0.101562 L 46.433594,-80 46.134766,-80.412109 Z m -44.1914066,0.236328 0.033203,0.01172 0.171875,0.238281 0,0.0332 -0.2050781,0.06836 L 1.8164062,-80 1.9433594,-80.175781 Z m 43.9999996,0 0.0332,0.01172 0.171876,0.238281 0,0.0332 -0.205079,0.06836 L 45.816406,-80 l 0.126953,-0.175781 z m -43.8085934,1.763672 -0.4863281,0.15625 0,0.511718 0.1738281,0.05469 0.3125,0.101562 L 2.4335938,-78 2.1347656,-78.412109 Z m 44.0000004,0 -0.486328,0.15625 0,0.511718 0.173828,0.05469 0.3125,0.101562 L 46.433594,-78 46.134766,-78.412109 Z m -44.1914066,0.236328 0.033203,0.01172 0.171875,0.238281 0,0.0332 -0.2050781,0.06836 L 1.8164062,-78 1.9433594,-78.175781 Z m 43.9999996,0 0.0332,0.01172 0.171876,0.238281 0,0.0332 -0.205079,0.06836 L 45.816406,-78 l 0.126953,-0.175781 z m -43.8085934,1.763672 -0.4863281,0.15625 0,0.511718 0.1738281,0.05469 0.3125,0.101562 L 2.4335938,-76 2.1347656,-76.412109 Z m 44.0000004,0 -0.486328,0.15625 0,0.511718 0.173828,0.05469 0.3125,0.101562 L 46.433594,-76 46.134766,-76.412109 Z m -44.1914066,0.236328 0.033203,0.01172 0.171875,0.238281 0,0.0332 -0.2050781,0.06836 L 1.8164062,-76 1.9433594,-76.175781 Z m 43.9999996,0 0.0332,0.01172 0.171876,0.238281 0,0.0332 -0.205079,0.06836 L 45.816406,-76 l 0.126953,-0.175781 z m -43.8085934,1.763672 -0.4863281,0.15625 0,0.511718 0.1738281,0.05469 0.3125,0.101562 L 2.4335938,-74 2.1347656,-74.412109 Z m 44.0000004,0 -0.486328,0.15625 0,0.511718 0.173828,0.05469 0.3125,0.101562 L 46.433594,-74 46.134766,-74.412109 Z m -44.1914066,0.236328 0.033203,0.01172 0.171875,0.238281 0,0.0332 -0.2050781,0.06836 L 1.8164062,-74 1.9433594,-74.175781 Z m 43.9999996,0 0.0332,0.01172 0.171876,0.238281 0,0.0332 -0.205079,0.06836 L 45.816406,-74 l 0.126953,-0.175781 z m -43.8085934,1.763672 -0.4863281,0.15625 0,0.511718 0.1738281,0.05469 0.3125,0.101562 L 2.4335938,-72 2.1347656,-72.412109 Z m 44.0000004,0 -0.486328,0.15625 0,0.511718 0.173828,0.05469 0.3125,0.101562 L 46.433594,-72 46.134766,-72.412109 Z m -44.1914066,0.236328 0.033203,0.01172 0.171875,0.238281 0,0.0332 -0.2050781,0.06836 L 1.8164062,-72 1.9433594,-72.175781 Z m 43.9999996,0 0.0332,0.01172 0.171876,0.238281 0,0.0332 -0.205079,0.06836 L 45.816406,-72 l 0.126953,-0.175781 z m -43.8085934,1.763672 -0.4863281,0.15625 0,0.511718 0.1738281,0.05469 0.3125,0.101562 L 2.4335938,-70 2.1347656,-70.412109 Z m 44.0000004,0 -0.486328,0.15625 0,0.511718 0.173828,0.05469 0.3125,0.101562 L 46.433594,-70 46.134766,-70.412109 Z m -44.1914066,0.236328 0.033203,0.01172 0.171875,0.238281 0,0.0332 -0.2050781,0.06836 L 1.8164062,-70 1.9433594,-70.175781 Z m 43.9999996,0 0.0332,0.01172 0.171876,0.238281 0,0.0332 -0.205079,0.06836 L 45.816406,-70 l 0.126953,-0.175781 z m -43.8085934,1.763672 -0.4863281,0.15625 0,0.511718 0.1738281,0.05469 0.3125,0.101562 L 2.4335938,-68 2.1347656,-68.412109 Z m 44.0000004,0 -0.486328,0.15625 0,0.511718 0.173828,0.05469 0.3125,0.101562 L 46.433594,-68 46.134766,-68.412109 Z m -44.1914066,0.236328 0.033203,0.01172 0.171875,0.238281 0,0.0332 -0.2050781,0.06836 L 1.8164062,-68 1.9433594,-68.175781 Z m 43.9999996,0 0.0332,0.01172 0.171876,0.238281 0,0.0332 -0.205079,0.06836 L 45.816406,-68 l 0.126953,-0.175781 z m -43.8085934,1.763672 -0.4863281,0.15625 0,0.511718 0.1738281,0.05469 0.3125,0.101562 L 2.4335938,-66 2.1347656,-66.412109 Z m 44.0000004,0 -0.486328,0.15625 0,0.511718 0.173828,0.05469 0.3125,0.101562 L 46.433594,-66 46.134766,-66.412109 Z m -44.1914066,0.236328 0.033203,0.01172 0.171875,0.238281 0,0.0332 -0.2050781,0.06836 L 1.8164062,-66 1.9433594,-66.175781 Z m 43.9999996,0 0.0332,0.01172 0.171876,0.238281 0,0.0332 -0.205079,0.06836 L 45.816406,-66 l 0.126953,-0.175781 z m -43.8085934,1.763672 -0.4863281,0.15625 0,0.511718 0.1738281,0.05469 0.3125,0.101562 L 2.4335938,-64 2.1347656,-64.412109 Z m 44.0000004,0 -0.486328,0.15625 0,0.511718 0.173828,0.05469 0.3125,0.101562 L 46.433594,-64 46.134766,-64.412109 Z m -44.1914066,0.236328 0.033203,0.01172 0.171875,0.238281 0,0.0332 -0.2050781,0.06836 L 1.8164062,-64 1.9433594,-64.175781 Z m 43.9999996,0 0.0332,0.01172 0.171876,0.238281 0,0.0332 -0.205079,0.06836 L 45.816406,-64 l 0.126953,-0.175781 z m -43.8085934,1.763672 -0.4863281,0.15625 0,0.511718 0.1738281,0.05469 0.3125,0.101562 L 2.4335938,-62 2.1347656,-62.412109 Z m 44.0000004,0 -0.486328,0.15625 0,0.511718 0.173828,0.05469 0.3125,0.101562 L 46.433594,-62 46.134766,-62.412109 Z m -44.1914066,0.236328 0.033203,0.01172 0.171875,0.238281 0,0.0332 -0.2050781,0.06836 L 1.8164062,-62 1.9433594,-62.175781 Z m 43.9999996,0 0.0332,0.01172 0.171876,0.238281 0,0.0332 -0.205079,0.06836 L 45.816406,-62 l 0.126953,-0.175781 z m -43.8085934,1.763672 -0.4863281,0.15625 0,0.511718 0.1738281,0.05469 0.3125,0.101562 L 2.4335938,-60 2.1347656,-60.412109 Z m 44.0000004,0 -0.486328,0.15625 0,0.511718 0.173828,0.05469 0.3125,0.101562 L 46.433594,-60 46.134766,-60.412109 Z m -44.1914066,0.236328 0.033203,0.01172 0.171875,0.238281 0,0.0332 -0.2050781,0.06836 L 1.8164062,-60 1.9433594,-60.175781 Z m 43.9999996,0 0.0332,0.01172 0.171876,0.238281 0,0.0332 -0.205079,0.06836 L 45.816406,-60 l 0.126953,-0.175781 z m -43.8085934,1.763672 -0.4863281,0.15625 0,0.511718 0.1738281,0.05469 0.3125,0.101562 L 2.4335938,-58 2.1347656,-58.412109 Z m 44.0000004,0 -0.486328,0.15625 0,0.511718 0.173828,0.05469 0.3125,0.101562 L 46.433594,-58 46.134766,-58.412109 Z m -44.1914066,0.236328 0.033203,0.01172 0.171875,0.238281 0,0.0332 -0.2050781,0.06836 L 1.8164062,-58 1.9433594,-58.175781 Z m 43.9999996,0 0.0332,0.01172 0.171876,0.238281 0,0.0332 -0.205079,0.06836 L 45.816406,-58 l 0.126953,-0.175781 z m -43.8085934,1.763672 -0.4863281,0.15625 0,0.511718 0.1738281,0.05469 0.3125,0.101562 L 2.4335938,-56 2.1347656,-56.412109 Z m 44.0000004,0 -0.486328,0.15625 0,0.511718 0.173828,0.05469 0.3125,0.101562 L 46.433594,-56 46.134766,-56.412109 Z m -44.1914066,0.236328 0.033203,0.01172 0.171875,0.238281 0,0.0332 -0.2050781,0.06836 L 1.8164062,-56 1.9433594,-56.175781 Z m 43.9999996,0 0.0332,0.01172 0.171876,0.238281 0,0.0332 -0.205079,0.06836 L 45.816406,-56 l 0.126953,-0.175781 z m -43.8085934,1.763672 -0.4863281,0.15625 0,0.511718 0.1738281,0.05469 0.3125,0.101562 L 2.4335938,-54 2.1347656,-54.412109 Z m 44.0000004,0 -0.486328,0.15625 0,0.511718 0.173828,0.05469 0.3125,0.101562 L 46.433594,-54 46.134766,-54.412109 Z m -44.1914066,0.236328 0.033203,0.01172 0.171875,0.238281 0,0.0332 -0.2050781,0.06836 L 1.8164062,-54 1.9433594,-54.175781 Z m 43.9999996,0 0.0332,0.01172 0.171876,0.238281 0,0.0332 -0.205079,0.06836 L 45.816406,-54 l 0.126953,-0.175781 z m -43.8085934,1.763672 -0.4863281,0.15625 0,0.511718 0.1738281,0.05469 0.3125,0.101562 L 2.4335938,-52 2.1347656,-52.412109 Z m 44.0000004,0 -0.486328,0.15625 0,0.511718 0.173828,0.05469 0.3125,0.101562 L 46.433594,-52 46.134766,-52.412109 Z m -44.1914066,0.236328 0.033203,0.01172 0.171875,0.238281 0,0.0332 -0.2050781,0.06836 L 1.8164062,-52 1.9433594,-52.175781 Z m 43.9999996,0 0.0332,0.01172 0.171876,0.238281 0,0.0332 -0.205079,0.06836 L 45.816406,-52 l 0.126953,-0.175781 z m -43.8085934,1.763672 -0.4863281,0.15625 0,0.511718 0.1738281,0.05469 0.3125,0.101562 L 2.4335938,-50 2.1347656,-50.412109 Z m 44.0000004,0 -0.486328,0.15625 0,0.511718 0.173828,0.05469 0.3125,0.101562 L 46.433594,-50 46.134766,-50.412109 Z m -44.1914066,0.236328 0.033203,0.01172 0.171875,0.238281 0,0.0332 -0.2050781,0.06836 L 1.8164062,-50 1.9433594,-50.175781 Z m 43.9999996,0 0.0332,0.01172 0.171876,0.238281 0,0.0332 -0.205079,0.06836 L 45.816406,-50 l 0.126953,-0.175781 z m -43.8085934,1.763672 -0.4863281,0.15625 0,0.511718 0.1738281,0.05469 0.3125,0.101562 L 2.4335938,-48 2.1347656,-48.412109 Z m 44.0000004,0 -0.486328,0.15625 0,0.511718 0.173828,0.05469 0.3125,0.101562 L 46.433594,-48 46.134766,-48.412109 Z m -44.1914066,0.236328 0.033203,0.01172 0.171875,0.238281 0,0.0332 -0.2050781,0.06836 L 1.8164062,-48 1.9433594,-48.175781 Z m 43.9999996,0 0.0332,0.01172 0.171876,0.238281 0,0.0332 -0.205079,0.06836 L 45.816406,-48 l 0.126953,-0.175781 z m -43.8085934,1.763672 -0.4863281,0.15625 0,0.511718 0.1738281,0.05469 0.3125,0.101562 L 2.4335938,-46 2.1347656,-46.412109 Z m 44.0000004,0 -0.486328,0.15625 0,0.511718 0.173828,0.05469 0.3125,0.101562 L 46.433594,-46 46.134766,-46.412109 Z m -44.1914066,0.236328 0.033203,0.01172 0.171875,0.238281 0,0.0332 -0.2050781,0.06836 L 1.8164062,-46 1.9433594,-46.175781 Z m 43.9999996,0 0.0332,0.01172 0.171876,0.238281 0,0.0332 -0.205079,0.06836 L 45.816406,-46 l 0.126953,-0.175781 z m -43.8085934,1.763672 -0.4863281,0.15625 0,0.511718 0.1738281,0.05469 0.3125,0.101562 L 2.4335938,-44 2.1347656,-44.412109 Z m 44.0000004,0 -0.486328,0.15625 0,0.511718 0.173828,0.05469 0.3125,0.101562 L 46.433594,-44 46.134766,-44.412109 Z m -44.1914066,0.236328 0.033203,0.01172 0.171875,0.238281 0,0.0332 -0.2050781,0.06836 L 1.8164062,-44 1.9433594,-44.175781 Z m 43.9999996,0 0.0332,0.01172 0.171876,0.238281 0,0.0332 -0.205079,0.06836 L 45.816406,-44 l 0.126953,-0.175781 z m -43.8085934,1.763672 -0.4863281,0.15625 0,0.511718 0.1738281,0.05469 0.3125,0.101562 L 2.4335938,-42 2.1347656,-42.412109 Z m 44.0000004,0 -0.486328,0.15625 0,0.511718 0.173828,0.05469 0.3125,0.101562 L 46.433594,-42 46.134766,-42.412109 Z m -44.1914066,0.236328 0.033203,0.01172 0.171875,0.238281 0,0.0332 -0.2050781,0.06836 L 1.8164062,-42 1.9433594,-42.175781 Z m 43.9999996,0 0.0332,0.01172 0.171876,0.238281 0,0.0332 -0.205079,0.06836 L 45.816406,-42 l 0.126953,-0.175781 z m -43.8085934,1.763672 -0.4863281,0.15625 0,0.511718 0.1738281,0.05469 0.3125,0.101562 L 2.4335938,-40 2.1347656,-40.412109 Z m 44.0000004,0 -0.486328,0.15625 0,0.511718 0.173828,0.05469 0.3125,0.101562 L 46.433594,-40 46.134766,-40.412109 Z m -44.1914066,0.236328 0.033203,0.01172 0.171875,0.238281 0,0.0332 -0.2050781,0.06836 L 1.8164062,-40 1.9433594,-40.175781 Z m 43.9999996,0 0.0332,0.01172 0.171876,0.238281 0,0.0332 -0.205079,0.06836 L 45.816406,-40 l 0.126953,-0.175781 z m -43.8085934,1.763672 -0.4863281,0.15625 0,0.511718 0.1738281,0.05469 0.3125,0.101562 L 2.4335938,-38 2.1347656,-38.412109 Z m 44.0000004,0 -0.486328,0.15625 0,0.511718 0.173828,0.05469 0.3125,0.101562 L 46.433594,-38 46.134766,-38.412109 Z m -44.1914066,0.236328 0.033203,0.01172 0.171875,0.238281 0,0.0332 -0.2050781,0.06836 L 1.8164062,-38 1.9433594,-38.175781 Z m 43.9999996,0 0.0332,0.01172 0.171876,0.238281 0,0.0332 -0.205079,0.06836 L 45.816406,-38 l 0.126953,-0.175781 z m -43.8085934,1.763672 -0.4863281,0.15625 0,0.511718 0.1738281,0.05469 0.3125,0.101562 L 2.4335938,-36 2.1347656,-36.412109 Z m 44.0000004,0 -0.486328,0.15625 0,0.511718 0.173828,0.05469 0.3125,0.101562 L 46.433594,-36 46.134766,-36.412109 Z m -44.1914066,0.236328 0.033203,0.01172 0.171875,0.238281 0,0.0332 -0.2050781,0.06836 L 1.8164062,-36 1.9433594,-36.175781 Z m 43.9999996,0 0.0332,0.01172 0.171876,0.238281 0,0.0332 -0.205079,0.06836 L 45.816406,-36 l 0.126953,-0.175781 z m -43.8085934,1.763672 -0.4863281,0.15625 0,0.511718 0.1738281,0.05469 0.3125,0.101562 L 2.4335938,-34 2.1347656,-34.412109 Z m 44.0000004,0 -0.486328,0.15625 0,0.511718 0.173828,0.05469 0.3125,0.101562 L 46.433594,-34 46.134766,-34.412109 Z m -44.1914066,0.236328 0.033203,0.01172 0.171875,0.238281 0,0.0332 -0.2050781,0.06836 L 1.8164062,-34 1.9433594,-34.175781 Z m 43.9999996,0 0.0332,0.01172 0.171876,0.238281 0,0.0332 -0.205079,0.06836 L 45.816406,-34 l 0.126953,-0.175781 z m -43.8085934,1.763672 -0.4863281,0.15625 0,0.511718 0.1738281,0.05469 0.3125,0.101562 L 2.4335938,-32 2.1347656,-32.412109 Z m 44.0000004,0 -0.486328,0.15625 0,0.511718 0.173828,0.05469 0.3125,0.101562 L 46.433594,-32 46.134766,-32.412109 Z m -44.1914066,0.236328 0.033203,0.01172 0.171875,0.238281 0,0.0332 -0.2050781,0.06836 L 1.8164062,-32 1.9433594,-32.175781 Z m 43.9999996,0 0.0332,0.01172 0.171876,0.238281 0,0.0332 -0.205079,0.06836 L 45.816406,-32 l 0.126953,-0.175781 z m -43.8085934,1.763672 -0.4863281,0.15625 0,0.511718 0.1738281,0.05469 0.3125,0.101562 L 2.4335938,-30 2.1347656,-30.412109 Z m 44.0000004,0 -0.486328,0.15625 0,0.511718 0.173828,0.05469 0.3125,0.101562 L 46.433594,-30 46.134766,-30.412109 Z m -44.1914066,0.236328 0.033203,0.01172 0.171875,0.238281 0,0.0332 -0.2050781,0.06836 L 1.8164062,-30 1.9433594,-30.175781 Z m 43.9999996,0 0.0332,0.01172 0.171876,0.238281 0,0.0332 -0.205079,0.06836 L 45.816406,-30 l 0.126953,-0.175781 z m -43.8085934,1.763672 -0.4863281,0.15625 0,0.511718 0.1738281,0.05469 0.3125,0.101562 L 2.4335938,-28 2.1347656,-28.412109 Z m 44.0000004,0 -0.486328,0.15625 0,0.511718 0.173828,0.05469 0.3125,0.101562 L 46.433594,-28 46.134766,-28.412109 Z m -44.1914066,0.236328 0.033203,0.01172 0.171875,0.238281 0,0.0332 -0.2050781,0.06836 L 1.8164062,-28 1.9433594,-28.175781 Z m 43.9999996,0 0.0332,0.01172 0.171876,0.238281 0,0.0332 -0.205079,0.06836 L 45.816406,-28 l 0.126953,-0.175781 z m -43.8085934,1.763672 -0.4863281,0.15625 0,0.511718 0.1738281,0.05469 0.3125,0.101562 L 2.4335938,-26 2.1347656,-26.412109 Z m 44.0000004,0 -0.486328,0.15625 0,0.511718 0.173828,0.05469 0.3125,0.101562 L 46.433594,-26 46.134766,-26.412109 Z m -44.1914066,0.236328 0.033203,0.01172 0.171875,0.238281 0,0.0332 -0.2050781,0.06836 L 1.8164062,-26 1.9433594,-26.175781 Z m 43.9999996,0 0.0332,0.01172 0.171876,0.238281 0,0.0332 -0.205079,0.06836 L 45.816406,-26 l 0.126953,-0.175781 z m -43.8085934,1.763672 -0.4863281,0.15625 0,0.511718 0.1738281,0.05469 0.3125,0.101562 L 2.4335938,-24 2.1347656,-24.412109 Z m 44.0000004,0 -0.486328,0.15625 0,0.511718 0.173828,0.05469 0.3125,0.101562 L 46.433594,-24 46.134766,-24.412109 Z m -44.1914066,0.236328 0.033203,0.01172 0.171875,0.238281 0,0.0332 -0.2050781,0.06836 L 1.8164062,-24 1.9433594,-24.175781 Z m 43.9999996,0 0.0332,0.01172 0.171876,0.238281 0,0.0332 -0.205079,0.06836 L 45.816406,-24 l 0.126953,-0.175781 z m -43.8085934,1.763672 -0.4863281,0.15625 0,0.511718 0.1738281,0.05469 0.3125,0.101562 L 2.4335938,-22 2.1347656,-22.412109 Z m 44.0000004,0 -0.486328,0.15625 0,0.511718 0.173828,0.05469 0.3125,0.101562 L 46.433594,-22 46.134766,-22.412109 Z m -44.1914066,0.236328 0.033203,0.01172 0.171875,0.238281 0,0.0332 -0.2050781,0.06836 L 1.8164062,-22 1.9433594,-22.175781 Z m 43.9999996,0 0.0332,0.01172 0.171876,0.238281 0,0.0332 -0.205079,0.06836 L 45.816406,-22 l 0.126953,-0.175781 z m -43.8085934,1.763672 -0.4863281,0.15625 0,0.511718 0.1738281,0.05469 0.3125,0.101562 L 2.4335938,-20 2.1347656,-20.412109 Z m 44.0000004,0 -0.486328,0.15625 0,0.511718 0.173828,0.05469 0.3125,0.101562 L 46.433594,-20 46.134766,-20.412109 Z m -44.1914066,0.236328 0.033203,0.01172 0.171875,0.238281 0,0.0332 -0.2050781,0.06836 L 1.8164062,-20 1.9433594,-20.175781 Z m 43.9999996,0 0.0332,0.01172 0.171876,0.238281 0,0.0332 -0.205079,0.06836 L 45.816406,-20 l 0.126953,-0.175781 z m -43.8085934,1.763672 -0.4863281,0.15625 0,0.511718 0.1738281,0.05469 0.3125,0.101562 L 2.4335938,-18 2.1347656,-18.412109 Z m 44.0000004,0 -0.486328,0.15625 0,0.511718 0.173828,0.05469 0.3125,0.101562 L 46.433594,-18 46.134766,-18.412109 Z m -44.1914066,0.236328 0.033203,0.01172 0.171875,0.238281 0,0.0332 -0.2050781,0.06836 L 1.8164062,-18 1.9433594,-18.175781 Z m 43.9999996,0 0.0332,0.01172 0.171876,0.238281 0,0.0332 -0.205079,0.06836 L 45.816406,-18 l 0.126953,-0.175781 z m -43.8085934,1.763672 -0.4863281,0.15625 0,0.511718 0.1738281,0.05469 0.3125,0.101562 L 2.4335938,-16 2.1347656,-16.412109 Z m 44.0000004,0 -0.486328,0.15625 0,0.511718 0.173828,0.05469 0.3125,0.101562 L 46.433594,-16 46.134766,-16.412109 Z m -44.1914066,0.236328 0.033203,0.01172 0.171875,0.238281 0,0.0332 -0.2050781,0.06836 L 1.8164062,-16 1.9433594,-16.175781 Z m 43.9999996,0 0.0332,0.01172 0.171876,0.238281 0,0.0332 -0.205079,0.06836 L 45.816406,-16 l 0.126953,-0.175781 z m -43.8085934,1.763672 -0.4863281,0.15625 0,0.511718 0.1738281,0.05469 0.3125,0.101562 L 2.4335938,-14 2.1347656,-14.412109 Z m 44.0000004,0 -0.486328,0.15625 0,0.511718 0.173828,0.05469 0.3125,0.101562 L 46.433594,-14 46.134766,-14.412109 Z m -44.1914066,0.236328 0.033203,0.01172 0.171875,0.238281 0,0.0332 -0.2050781,0.06836 L 1.8164062,-14 1.9433594,-14.175781 Z m 43.9999996,0 0.0332,0.01172 0.171876,0.238281 0,0.0332 -0.205079,0.06836 L 45.816406,-14 l 0.126953,-0.175781 z m -43.8085934,1.763672 -0.4863281,0.15625 0,0.511718 0.1738281,0.05469 0.3125,0.101562 L 2.4335938,-12 2.1347656,-12.412109 Z m 44.0000004,0 -0.486328,0.15625 0,0.511718 0.173828,0.05469 0.3125,0.101562 L 46.433594,-12 46.134766,-12.412109 Z m -44.1914066,0.236328 0.033203,0.01172 0.171875,0.238281 0,0.0332 -0.2050781,0.06836 L 1.8164062,-12 1.9433594,-12.175781 Z m 43.9999996,0 0.0332,0.01172 0.171876,0.238281 0,0.0332 -0.205079,0.06836 L 45.816406,-12 l 0.126953,-0.175781 z m -43.8085934,1.763672 -0.4863281,0.15625 0,0.5117184 0.1738281,0.054687 0.3125,0.1015625 L 2.4335938,-10 2.1347656,-10.412109 Z m 44.0000004,0 -0.486328,0.15625 0,0.5117184 0.173828,0.054687 0.3125,0.1015625 L 46.433594,-10 46.134766,-10.412109 Z m -44.1914066,0.236328 0.033203,0.01172 0.171875,0.2382808 0,0.033203 -0.2050781,0.068359 L 1.8164062,-10 1.9433594,-10.175781 Z m 43.9999996,0 0.0332,0.01172 0.171876,0.2382808 0,0.033203 -0.205079,0.068359 L 45.816406,-10 l 0.126953,-0.175781 z m -43.8085934,1.7636716 -0.4863281,0.15625 0,0.5117188 0.1738281,0.054687 0.3125,0.1015625 L 2.4335938,-8 2.1347656,-8.4121094 Z m 44.0000004,0 -0.486328,0.15625 0,0.5117188 0.173828,0.054687 0.3125,0.1015625 L 46.433594,-8 46.134766,-8.4121094 Z m -44.1914066,0.2363282 0.033203,0.011719 0.171875,0.2382813 0,0.033203 -0.2050781,0.068359 L 1.8164062,-8 1.9433594,-8.1757812 Z m 43.9999996,0 0.0332,0.011719 0.171876,0.2382813 0,0.033203 -0.205079,0.068359 L 45.816406,-8 45.943359,-8.1757812 Z m -43.8085934,1.7636718 -0.4863281,0.15625 0,0.5117188 0.1738281,0.054687 0.3125,0.1015625 L 2.4335938,-6 2.1347656,-6.4121094 Z m 44.0000004,0 -0.486328,0.15625 0,0.5117188 0.173828,0.054687 0.3125,0.1015625 L 46.433594,-6 46.134766,-6.4121094 Z m -44.1914066,0.2363282 0.033203,0.011719 0.171875,0.2382813 0,0.033203 -0.2050781,0.068359 L 1.8164062,-6 1.9433594,-6.1757812 Z m 43.9999996,0 0.0332,0.011719 0.171876,0.2382813 0,0.033203 -0.205079,0.068359 L 45.816406,-6 45.943359,-6.1757812 Z m -43.8085934,1.7636718 -0.4863281,0.15625 0,0.5117188 0.1738281,0.054687 0.3125,0.1015625 L 2.4335938,-4 2.1347656,-4.4121094 Z m 44.0000004,0 -0.486328,0.15625 0,0.5117188 0.173828,0.054687 0.3125,0.1015625 L 46.433594,-4 46.134766,-4.4121094 Z m -44.1914066,0.2363282 0.033203,0.011719 0.171875,0.2382813 0,0.033203 -0.2050781,0.068359 L 1.8164062,-4 1.9433594,-4.1757812 Z m 43.9999996,0 0.0332,0.011719 0.171876,0.2382813 0,0.033203 -0.205079,0.068359 L 45.816406,-4 45.943359,-4.1757812 Z m -43.8085934,1.7636718 -0.4863281,0.15625 0,0.5117188 0.1738281,0.054687 0.3125,0.1015625 L 2.4335938,-2 2.1347656,-2.4121094 Z m 44.0000004,0 -0.486328,0.15625 0,0.5117188 0.173828,0.054687 0.3125,0.1015625 L 46.433594,-2 46.134766,-2.4121094 Z m -44.1914066,0.2363282 0.033203,0.011719 0.171875,0.2382813 0,0.033203 -0.2050781,0.068359 L 1.8164062,-2 1.9433594,-2.1757812 Z m 43.9999996,0 0.0332,0.011719 0.171876,0.2382813 0,0.033203 -0.205079,0.068359 L 45.816406,-2 45.943359,-2.1757812 Z"
     id="path4159"
     inkscape:connector-curvature="0" />
</svg>
