<?xml version="1.0" standalone="no"?>
<!DOCTYPE svg PUBLIC "-//W3C//DTD SVG 1.1//EN" "http://www.w3.org/Graphics/SVG/1.1/DTD/svg11.dtd">
<svg width="22mm" height="98mm" viewBox="0 -98 22 98" xmlns="http://www.w3.org/2000/svg" version="1.1">
<title>OpenSCAD Model</title>
<path d="
M 22,-93 L 21.7596,-94.0453 L 21.049,-95.0449 L 19.8992,-95.9551 L 18.3604,-96.7362 L 16.5,-97.354
 L 14.3992,-97.7815 L 12.1498,-98 L 9.85017,-98 L 7.6008,-97.7815 L 5.5,-97.354 L 3.63956,-96.7362
 L 2.1008,-95.9551 L 0.950989,-95.0449 L 0.240372,-94.0453 L 0,-93 L 0,-0.148865 L 0.0540771,-0.166428
 L 0.174988,-0 L 22,-0 z
M 10.8584,-94.8971 L 10.8584,-95.1029 L 11.0541,-95.1664 L 11.175,-95 L 11.0541,-94.8336 z
M 13.7584,-94.7971 L 13.7584,-95.0029 L 13.9541,-95.0664 L 14.075,-94.9 L 13.9541,-94.7336 z
M 7.95842,-94.7971 L 7.95842,-95.0029 L 8.15407,-95.0664 L 8.27499,-94.9 L 8.15407,-94.7336 z
M 16.5584,-94.0971 L 16.5584,-94.3029 L 16.7541,-94.3664 L 16.875,-94.2 L 16.7541,-94.0336 z
M 5.15842,-94.0971 L 5.15842,-94.3029 L 5.35406,-94.3664 L 5.47499,-94.2 L 5.35406,-94.0336 z
M 2.85841,-92.8971 L 2.85841,-93.1029 L 3.05408,-93.1664 L 3.17499,-93 L 3.05408,-92.8336 z
M 18.8584,-92.8971 L 18.8584,-93.1029 L 19.0541,-93.1664 L 19.175,-93 L 19.0541,-92.8336 z
M 2.85841,-89.8971 L 2.85841,-90.1029 L 3.05408,-90.1664 L 3.17499,-90 L 3.05408,-89.8336 z
M 18.8584,-89.8971 L 18.8584,-90.1029 L 19.0541,-90.1664 L 19.175,-90 L 19.0541,-89.8336 z
M 18.8584,-86.8971 L 18.8584,-87.1029 L 19.0541,-87.1664 L 19.175,-87 L 19.0541,-86.8336 z
M 2.85841,-86.8971 L 2.85841,-87.1029 L 3.05408,-87.1664 L 3.17499,-87 L 3.05408,-86.8336 z
M 2.85841,-83.8971 L 2.85841,-84.1029 L 3.05408,-84.1664 L 3.17499,-84 L 3.05408,-83.8336 z
M 18.8584,-83.8971 L 18.8584,-84.1029 L 19.0541,-84.1664 L 19.175,-84 L 19.0541,-83.8336 z
M 2.85841,-80.8971 L 2.85841,-81.1029 L 3.05408,-81.1664 L 3.17499,-81 L 3.05408,-80.8336 z
M 18.8584,-80.8971 L 18.8584,-81.1029 L 19.0541,-81.1664 L 19.175,-81 L 19.0541,-80.8336 z
M 2.85841,-77.8971 L 2.85841,-78.1029 L 3.05408,-78.1664 L 3.17499,-78 L 3.05408,-77.8336 z
M 18.8584,-77.8971 L 18.8584,-78.1029 L 19.0541,-78.1664 L 19.175,-78 L 19.0541,-77.8336 z
M 2.85841,-74.8971 L 2.85841,-75.1029 L 3.05408,-75.1664 L 3.17499,-75 L 3.05408,-74.8336 z
M 18.8584,-74.8971 L 18.8584,-75.1029 L 19.0541,-75.1664 L 19.175,-75 L 19.0541,-74.8336 z
M 2.85841,-71.8971 L 2.85841,-72.1029 L 3.05408,-72.1664 L 3.17499,-72 L 3.05408,-71.8336 z
M 18.8584,-71.8971 L 18.8584,-72.1029 L 19.0541,-72.1664 L 19.175,-72 L 19.0541,-71.8336 z
M 2.85841,-68.8971 L 2.85841,-69.1029 L 3.05408,-69.1664 L 3.17499,-69 L 3.05408,-68.8336 z
M 18.8584,-68.8971 L 18.8584,-69.1029 L 19.0541,-69.1664 L 19.175,-69 L 19.0541,-68.8336 z
M 18.8584,-65.8971 L 18.8584,-66.1029 L 19.0541,-66.1664 L 19.175,-66 L 19.0541,-65.8336 z
M 2.85841,-65.8971 L 2.85841,-66.1029 L 3.05408,-66.1664 L 3.17499,-66 L 3.05408,-65.8336 z
M 18.8584,-62.8971 L 18.8584,-63.1029 L 19.0541,-63.1664 L 19.175,-63 L 19.0541,-62.8336 z
M 2.85841,-62.8971 L 2.85841,-63.1029 L 3.05408,-63.1664 L 3.17499,-63 L 3.05408,-62.8336 z
M 2.85841,-59.8971 L 2.85841,-60.1029 L 3.05408,-60.1664 L 3.17499,-60 L 3.05408,-59.8336 z
M 18.8584,-59.8971 L 18.8584,-60.1029 L 19.0541,-60.1664 L 19.175,-60 L 19.0541,-59.8336 z
M 2.85841,-56.8971 L 2.85841,-57.1029 L 3.05408,-57.1664 L 3.17499,-57 L 3.05408,-56.8336 z
M 18.8584,-56.8971 L 18.8584,-57.1029 L 19.0541,-57.1664 L 19.175,-57 L 19.0541,-56.8336 z
M 2.85841,-53.8971 L 2.85841,-54.1029 L 3.05408,-54.1664 L 3.17499,-54 L 3.05408,-53.8336 z
M 18.8584,-53.8971 L 18.8584,-54.1029 L 19.0541,-54.1664 L 19.175,-54 L 19.0541,-53.8336 z
M 2.85841,-50.8971 L 2.85841,-51.1029 L 3.05408,-51.1664 L 3.17499,-51 L 3.05408,-50.8336 z
M 18.8584,-50.8971 L 18.8584,-51.1029 L 19.0541,-51.1664 L 19.175,-51 L 19.0541,-50.8336 z
M 2.85841,-47.8971 L 2.85841,-48.1029 L 3.05408,-48.1664 L 3.17499,-48 L 3.05408,-47.8336 z
M 18.8584,-47.8971 L 18.8584,-48.1029 L 19.0541,-48.1664 L 19.175,-48 L 19.0541,-47.8336 z
M 18.8584,-44.8971 L 18.8584,-45.1029 L 19.0541,-45.1664 L 19.175,-45 L 19.0541,-44.8336 z
M 2.85841,-44.8971 L 2.85841,-45.1029 L 3.05408,-45.1664 L 3.17499,-45 L 3.05408,-44.8336 z
M 2.85841,-41.8971 L 2.85841,-42.1029 L 3.05408,-42.1664 L 3.17499,-42 L 3.05408,-41.8336 z
M 18.8584,-41.8971 L 18.8584,-42.1029 L 19.0541,-42.1664 L 19.175,-42 L 19.0541,-41.8336 z
M 2.85841,-38.8971 L 2.85841,-39.1029 L 3.05408,-39.1664 L 3.17499,-39 L 3.05408,-38.8336 z
M 18.8584,-38.8971 L 18.8584,-39.1029 L 19.0541,-39.1664 L 19.175,-39 L 19.0541,-38.8336 z
M 2.85841,-35.8971 L 2.85841,-36.1029 L 3.05408,-36.1664 L 3.17499,-36 L 3.05408,-35.8336 z
M 18.8584,-35.8971 L 18.8584,-36.1029 L 19.0541,-36.1664 L 19.175,-36 L 19.0541,-35.8336 z
M 2.85841,-32.8971 L 2.85841,-33.1029 L 3.05408,-33.1664 L 3.17499,-33 L 3.05408,-32.8336 z
M 18.8584,-32.8971 L 18.8584,-33.1029 L 19.0541,-33.1664 L 19.175,-33 L 19.0541,-32.8336 z
M 18.8584,-29.8971 L 18.8584,-30.1029 L 19.0541,-30.1664 L 19.175,-30 L 19.0541,-29.8336 z
M 2.85841,-29.8971 L 2.85841,-30.1029 L 3.05408,-30.1664 L 3.17499,-30 L 3.05408,-29.8336 z
M 2.85841,-26.8971 L 2.85841,-27.1029 L 3.05408,-27.1664 L 3.17499,-27 L 3.05408,-26.8336 z
M 18.8584,-26.8971 L 18.8584,-27.1029 L 19.0541,-27.1664 L 19.175,-27 L 19.0541,-26.8336 z
M 2.85841,-23.8971 L 2.85841,-24.1029 L 3.05408,-24.1664 L 3.17499,-24 L 3.05408,-23.8336 z
M 18.8584,-23.8971 L 18.8584,-24.1029 L 19.0541,-24.1664 L 19.175,-24 L 19.0541,-23.8336 z
M 2.85841,-20.8971 L 2.85841,-21.1029 L 3.05408,-21.1664 L 3.17499,-21 L 3.05408,-20.8336 z
M 18.8584,-20.8971 L 18.8584,-21.1029 L 19.0541,-21.1664 L 19.175,-21 L 19.0541,-20.8336 z
M 18.8584,-17.8971 L 18.8584,-18.1029 L 19.0541,-18.1664 L 19.175,-18 L 19.0541,-17.8336 z
M 2.85841,-17.8971 L 2.85841,-18.1029 L 3.05408,-18.1664 L 3.17499,-18 L 3.05408,-17.8336 z
M 18.8584,-14.8971 L 18.8584,-15.1029 L 19.0541,-15.1664 L 19.175,-15 L 19.0541,-14.8336 z
M 2.85841,-14.8971 L 2.85841,-15.1029 L 3.05408,-15.1664 L 3.17499,-15 L 3.05408,-14.8336 z
M 18.8584,-11.8971 L 18.8584,-12.1029 L 19.0541,-12.1664 L 19.175,-12 L 19.0541,-11.8336 z
M 2.85841,-11.8971 L 2.85841,-12.1029 L 3.05408,-12.1664 L 3.17499,-12 L 3.05408,-11.8336 z
M 18.8584,-8.89713 L 18.8584,-9.10286 L 19.0541,-9.16643 L 19.175,-9 L 19.0541,-8.83356 z
M 2.85841,-8.89713 L 2.85841,-9.10286 L 3.05408,-9.16643 L 3.17499,-9 L 3.05408,-8.83356 z
M 18.8584,-5.89713 L 18.8584,-6.10286 L 19.0541,-6.16643 L 19.175,-6 L 19.0541,-5.83356 z
M 2.85841,-5.89713 L 2.85841,-6.10286 L 3.05408,-6.16643 L 3.17499,-6 L 3.05408,-5.83356 z
M 2.85841,-2.89713 L 2.85841,-3.10286 L 3.05408,-3.16643 L 3.17499,-3 L 3.05408,-2.83356 z
M 18.8584,-2.89713 L 18.8584,-3.10286 L 19.0541,-3.16643 L 19.175,-3 L 19.0541,-2.83356 z
"/></svg>
